<mxfile host="app.diagrams.net" modified="2024-01-15T18:31:26.318Z" agent="Mozilla/5.0 (Windows NT 10.0; Win64; x64) AppleWebKit/537.36 (KHTML, like Gecko) Chrome/120.0.0.0 Safari/537.36" etag="xFQdw_wF0_e6_GRtCJsp" version="22.1.18" type="device">
  <diagram id="C5RBs43oDa-KdzZeNtuy" name="Page-1">
    <mxGraphModel dx="977" dy="553" grid="1" gridSize="10" guides="1" tooltips="1" connect="1" arrows="1" fold="1" page="1" pageScale="1" pageWidth="827" pageHeight="1169" math="0" shadow="0">
      <root>
        <mxCell id="WIyWlLk6GJQsqaUBKTNV-0" />
        <mxCell id="WIyWlLk6GJQsqaUBKTNV-1" parent="WIyWlLk6GJQsqaUBKTNV-0" />
        <mxCell id="TgRBGbH7u2lKpc8eLeI7-0" value="" style="shape=image;verticalLabelPosition=bottom;labelBackgroundColor=default;verticalAlign=top;aspect=fixed;imageAspect=0;image=data:image/png,iVBORw0KGgoAAAANSUhEUgAAAOEAAADhCAMAAAAJbSJIAAAAjVBMVEX///8AAAD7+/v29vb39/fz8/Pw8PDR0dHa2trp6ent7e3m5ubh4eHd3d2vr6/X19fBwcG2trasrKyYmJjIyMi/v7+JiYmmpqafn59qamqBgYFbW1t+fn6UlJQaGhpiYmJRUVF2dnZUVFQlJSU/Pz9GRkYzMzM6OjoQEBBKSkowMDAhISEODg4ZGRlvb29PaX8pAAAgAElEQVR4nNU9B7uquLYERRRRQZGiImLd1v//815WSQFxnzZn5r7c787ZKiWr1ySO89dH4CfzclWvT7ft8yHE4+t+OB/XdbqIk9ng77/+b47eLE7XB/H9uFdpPOz/11P99eFO5vXlB7DZ41hPw/96zr8whtm6A4jtZVdVVVEUVbW+HjtI+6yy4X899Z8Y/fjVnPdjvckjf9RxaTBLslVxb15exP/THOtN99Zkv4pF9DOsFyaL4mHdt5t6f32mvzXc2OLN0yIJ1A/9cRIv6krq0i8G/XC77Iu6jKNJz+WLRkl5Mrfv/weB9Gs9vcMq4vkN/Ox1bbFha3ydXrlCRi9JjXZ6+f8dMO+jl2vFccmJMT0/r9SX+1c6jfxw0Ov1+67r9ns9rzf2o7is10zVQ5HNSP5GmSblIftfIeRE65ZLRhplVh7piypdztxvb3Zny7Kgi48lkS3INCXrLg31bw//qqaTIvXcJQG8X/jfw2YP11/s8K4i7sHncflUaue/ZtbkqGayhI8eaZtTPvuNZw0zhJJVaVLxk4/JPzrjXxvJySafu0TwimWX+LjJcvrGcuO2W+pFyABVBB+C8r+m45CN32EK7BhuUHCSD6wZyB+j9pdf4lYtonHzy6SGB20m8PeclVX1X7h0A9YPN2TPCKRx3QQhnE7NB0/+Hrce4WoNtVk2fkAOveDlEcNY9/4CDN8O5qA7TMPN5F/PvMmc8J0w5AFopq1nhMKM1m/eArycOfypYMz/BhgfR8J2DKbQX4DmfFMHSOK1+awmbI0YWIAhLN7esQS2KEFSY1Ksh39PHD02gKX8uw/ErCfvF5ERMYDLD1nrErjV6YVxKv9d0VfZKTaCPIT3rADGnFn15+3PH42YXvca8CRXQddVZ7xoqz9/vfOZVL0X+NfiYDA+taHVqGZE9jb00jdl9ReGR/71DSzeFJSeFj93cbL4iKVH0+1OU7WHvGQD//ryOjKgLJn3hTYjQcHgh2R5i79OxsiIvS9lqNBTGSOW9XV9+QGtpULAWXOiGgOFgKm+MdWa56QZI5QovQHq5qLF+H9lELPsJVyB1OgX7br4a6N6cID9WwAPv/gLCW7dfNZM/urzQx/0lWTlEz3py7rQl35qFWj2Sf8OaDjGN815ma3hp2eF+pv6aoSEFpr/nP2bvgTSIaV26qdEgNEcLW7M0Ymi15zfOsWXHP9aho5UzFkauZGkyEalGzKG7vhl8dAMMQB3nOgLSfKq+biVIh2QG/94KXadvdCS3sWaPT3QNFf5d3D5m5y60TwiUXo3vjUhdu8jVAwPymu9QZqTK1M3rCOMHX8T6CmjKjGzR9StWLX4DyIjieriL8DnkoGTguPtWrLwVLwI4TxTdirMwC/kzJ6n29PS+F/8mERxq7qnJFdIOXVKHQMZPdK8b9j6B8YYc0XwBkmdQzM4AntcsjZVb84sCFOGUDSU4QA/7OrpRiHBJGrw40p92jJO/C3e7CGub/+wMCZ6qiuj9RfMKz3505fP8dyDXGQE6LFfLOHfUQPCyH4kjT0iUf7xwnhlpT6KjLI8J6ZqQSpopdjpnxvEP1KgvJOmQSBRyUHNypos23Uw1PgrWIyr/DfbF/UmLReLMrSfSQMN/wK5dbQ4CEwMr+lZCwLRTGTXU6bxH3RwyC0cooY8etYEz/T3iCd6rIXSj3vFa86tjj8EjZ6/TAv1aHRxSNviJxQ3uA8UkbaqzlheNVHC2A7Hfnsgg20DRB1zaI+iX6UEkEMhFAdcoJmUtH7+3NPH0WKsQLqnOtRFE/sVMfosoZPvktHkaAtf/0MRFfLg2cU/2GdB6RIXHf6BndjBHz1FWPFVL98f9d3giPqSITSKh6/Jnjm/nzHJSvzsXoxI/OFAMwiStNbCTZOxLcZRiR38lPcct22T+8FoksTTeZZl83m8TMKgnc2ZlCpWzKzwn4b82ZVE2xO3L4lr9+1J/AmAFeLsoFJJoAS2YDHCLeM1UrICvLZpZFUGfr7a3cT7OFxXWbNkM1spqQTB2Ks4FPke4bnT5ROpelyWjT8GEQGUXqP3xIfSAF4EEwBSx/mTuxKW3I7kw/mLE5+Xok4X8ziKkiSK4myxKlRGvGqkHqc3iBnRVkoZmKDpA7ZX6pp4I9iKQ5956Q/dmxUrshHbLB5gy46DE5MXBujvZnQUTImZd2k8607PD2bTlDylIjZX+AlRh54WPVE2UCxPRrm4R/E1IEf2LXXwSyNnCoZtt7lWrLZmLeeyuPAIS1AE9zpWXOhBoWKal+kqRVrOBip5No43QM5jaXgbjb36fe6TJpPkQ4A4BtuLZ8Ag/oHRiJlIoTZIWntywQ9ZEoFMRanm5M1B8VwzujhI8tf1q0MOt9dXxmWnMANaXnJlFHppwxB4ihszIfRUdmI7YFn87VAD/ao9sighLnyIGxMFTe4OPoRndDg8xWc+4HVPbBfOqx91Khxec8xjUUGgUK7YyHYSLsKOIBWr7MWhhxEKewy/PpBXjohBQhtlUTi9ANoO9FjelIRMQvS1wGui+tEJU8d4YYbNgxT35Z3nCpoHjJewAumdODjsGvyWG44K84aGiJ455Onw08AA+AHlh9Qt4ISukWeWRROGc7Uqs2Xi+zPf96P5Iq1aBqRCB2EGt7XyqqgMiEPASX2aQv8V9G4ftPXhdyA8MjQXjohmai4Plh35J7pOyiS5mFoE4RturKlfVtNhZ77RGQ2nqVXaFhswG8GmBSMyJiVkMQ1mG9sjC9Fb/uBnRg33DcG6Xw2AFcbBT5owp2lVtA8fU4lqd66zNuK68H9Ux3VnC12BFOe5JFAgTdTBxA0gaCQGKCX8A03BPYAAoU74ZbOI8UkMFv9mAARiAtKfxKiI/w1dn0gRWnlMSCZJ8rPVFG9Z67sASYH8uFdqe63gAr9NAZKKB9Jy8ADXFCf7iwp1wtyXs2ZBAEkcgXu/kDID/dzemvJ9iq7y2l8N3iJVERUrScfQZEooikipTsDMWLEEIV1j9rx+Sdu4X0SxRCUDkVwsTSigSJ7pjnT6lMsmKnVxyH4nM93LVWkbIgbpzHzZjn4FUFA86pJ6O+BLIpRM+Ob4Ky+DZ365IMMqJ3q1QARwt0a+BntiniVPcP376YVIKR5QrKkWAZ30wZcGqn+FFEQuHn0Kk3/BCUdfZgIGwdx0shgBhF+7qZLOF4nFkPVF9VbCH8+zeTPK7wdNjuqZzz4Xlq/ykbOb2PpmQsxPqG8eyUOLzQvmgmr2p1GLCMlBnZ6sbwHEr4ECStvAlJiKE0178C56ZWk024jz/eabGFjqXjY/H/Tvs51h1ZWKcVFdki8APx8HBCgR4A4XNcsmPxhXIlFsvF8N4tNTABL++lfEHKf7b4REUG2KZqbOy66IywBgWsTReVgJs6ZjQk87DPFVxCyjvQpFIdwBdy1hOqDz5ZMH0qqMfBoZcXzAVJ+oyoOSP3z0Dr+Z0QRYgyo7fUAhpgFwL0N/o6mIDIfuHNYOKS6yPpsvkUQSAVsrSoapAIrOfNFCXe6Sk/lTJiNghrgwD9wMh51wvoYgMU5iQFSptOv9MBBOlcoDwIgjcrEOiQLkLy/wcySU44KjT+H9MUD+1/JVIwg3VgOpzicWYEawm+BnlDjITQUTIZwCU+gUuuoPWvFcQedxZtfKO4UGwlS75Qetl2P1y9L+vGrlP7lQ6SNy+E7QQiEHU8CQ2oGT1m1J0rX5MYAR8eiYHUCcv/F1CcSXmtNMafK17ZwNGxDmGsJGda1o0Aw/N5tmeqSiMlQzuXoamqxRC6U4zR59/eNACkRiCqDgQ/uMx0TdeBTKsXihZt2oaXRDKFn6jn9YdTapGibQrGkUdfszDxLvDaoSkphaINevWJCsURPfNaS5e6Q0k4yv3JO898wDj2xo1+Lmcvz5bLViWBACwrbLMUbFBgREy8GIzKr12XoQKbXBF6tJmM+uYC1EY7LDf5CoB/He09IaqGbG8A86vqD3jw7JJtPJrRjAi+t4qNb37anZENpdQVqcKXFmLGT7sx49NCVH+aY7g6jiFl1/LlW9GPQpms3vIVyTGqnoLuV/A6B3OWfD+gUkwQd3o3U+QeiMSZwuZytBPfHjvdBOoP7c5ToTeT3HOxDVehSSKqswOWvZK+CConNC1vBJryTcB0Nqcj3jpyTixJPYAE8Fjw+Yb0Ao+SLO58ORaDlVt5YkXVq6Qw0URhmueV/0KjB7TxVZUWGqxJcNmPmomPdpnIgbH0pxu7o5vWStE9CDpbM7eDS45TOEMHo37fuzYt4pCPnz/lNWEF2EuwcQoIiFleqpCbF08VRKMBc7Kua9d5DpAZbiAJea7C83scAXXNBDMy5xun1XaB0QuiJdJhGqedJHvTv2qABp0Dr0vo4+fx53PYzLQPceUK/hshABLZ68yd9dzbWdA5g6gossyzRCE7gbIawIuc9xh/jkJNkQmpCfrwXEnFEFo+pwn/rzR2ONwnLDF1tZYyTg1m9cdyP7/LHIDyS8gMHAd0fKHaVJomXHnB9OFpXch/rZTBjPW+tRRaBoy9+wlxypsPcbbwS9kB0wlG4kyu1nON4Kp3IFodF9Ex3jjJgecKBpOnN9lbFGhB2BVYtPMgijP5xoC9mLV0X1ymwGXBbH+3VjOCmGz6tvfZEpo2DD5OEmN8VCKfsVE9CQ089EBGY4g35GtQwCrq2qVTBcwe2IwX+zpVW98EJvRbYyTXyp0ggVKCMh2g6gGhfESsBuKNDNhIdLwUmSBCxq0hLxf2HUxEM9ViPHhp8O6gXt2wjYeP5Jnc5InFdaXwLNliuGcnBFvHjA4wOlXdUIlukaxeu4Xi3DbwMYL/82gdr355s19hVdqlVsuwCojCA4RX4M140lbqWSmUIRsct7qJDUHkvhHZ8H/yiTjky/h4+YFTZOS8qe1OHGSmSff1ooM8JqxweL7PqljvdvVNA5LvS1qHR3wJFvKmmAfi4SESURzEhHgR+cji/Ahi2Fy5aOi8F7XtiMPgERXS+iMeK05/l5gcpxnb11Ro/mCoDdtJ3md2c5OhfHzTTx+oifIFqAK6cXIqALuSCrZ4+e6kVCf2AtuRfjx3cIU7qffZ4DKfxbk949sMoTS416kvC3KTHMTIdQwZqoWSwSPb1lCo9cQ4yxgYmfS7U20ZvFVAneHneGgyPUHP0p9BEzQ2SE2Vlj9q7ptUJL4oO924guX4TYfEoyitq5CJcthbIGTXY3giwpfVEm11RRAVlhMNXrvb6YeXdzD3AmuWCQMTXvBzZE2800GFj1lUSr6uSsZ1uRpkiNjnfJr5HWFtQL3nGUqggCmrc4EYB5gUlEY2nVjix+Suj5ArxSGIUdjM1UdgqLfGiAw7hcXwC8r7MkJ92zYrnuJYvqDJ7t/VjnyYifoNPWUwu1mfob630lqHkiv8sZsP2MKMTy9SK11Lb6IAXQIcp9XKGigJ2fu8krkEdRUfePYmfrxbxSWiF42XLu9uyr5jb7uJ5n5yuzyjgGqbVIJjywCefqWkRBOCeIrpzCrJkWwIpt5nMo8j2A1dF+yphhfOm3ZsBEJ8WjruSe6mfrPcFkEvb4IfQGL5xMuquKXWPHxulF+nSHOKYa9dsUUoiO3nVNjmzcb3ytYdTICSiUQX47idUkfXePWCtIFXSdTzzw4KYrtia3NBlLKjzlf1dcAD6m8UTe4Q2zo3i9L+IOtF+9JhHtEQeFVPJbiVsHikdk1dthwRmV5rSVNB69LFZdAJ8/lB6t5b8+FyoTs+ag5CxOox/zJwezdl7q1c/8HTROXUh+QaE84O3A60F3QHmVIjgTLb8mJOpf38ST6Ags3QcnDlSXct5g04ANQlgZ3fzFlhLfkEUzP85eumB/SecAeTpPdZX4XGdLf7bMQE2SAZ0adzhBF7onn+/rzNENmW1kLcZ5G1OYL5DCdjuoaTJorHJQMNZkEhcSnxheIuccACY3uSKOI/FQRrMERDmUJdOqYhAus4xbZ1KixSjKsvky1DoI/A0S+KXlj6S7UE5qKsVvBKlyhhpEafNNm1AfqAx+nB3cHZFJ593e9BhNOXAitlrAB4nRIjWOiSVBPOf+14f2iPJDSLLV2cRpq4srlprjfIJWW/wIhmBBLvanUUgRDEUjhgIBPoE4f9aNU+m9IQmBl1St8JslunF39Aiprs5IMP/c0xwJZmpcfIE5VJcl8dMNL4qUDJvGiBe3ybnNcZBMBLxc0eXPVV6CCTXLk5xM6VwnvBROzf5JddGh2uYwQ6d97fT2V1NKK9ilb1RwfdMHEICTt17kmwepxwolMfwmue0CuRcNNq2RNstvklQJkPyLCBCJG72+txKm+GD5NJKhlhdiqqnxxBK4AOyuB29X8LiCLmy5WUIXS4DqrF2XW8FdfE9Ayef14sCmE2G7KwKzAK9PeRcHGNhHSq9BKSAkLiiG2VNnyEKjniUAqng2M9HXCHVyBtyVWI7xAdWiL5oh3UGt9ZJMeQAk4lukl9GnzH4sn/FyPo0YAqKtMNZ9SOAaq/Y2ApjGkRTpmqYSiIvkmcFdp9V8oyH80VKwIxyaZBjZbyTexOA/yAKnzVPgmxPipIa4SaCiG81tAlPH5lbgqI/THQBstcVgGSJlYrVrDFpinMvpTojSI1jZitdUgJZBd2m5Fr+2cAecwa5kW4FGp+Dya6+HZAHqhBIprRqMlRI4Ss4CllNIB5URSCiAnwgvt5YiPMvfV0IV82AUsSuReUWMWspxRJ32jpBulvEAiU44eplJEg20Knbl9bsO8+LDwyVvJk4/5lbAkCiSSiZqleOm1L0F6C8l9IFBsvtAR2WPtnxwWIylumrScAiXkpZGf/cAdRZpmEN4SWUpKPkonOdYZPJ/mhUtidiZeqtnyObLq3Pd5GSyA2sQ3ZskCMRs58uB/Ig+Wf19K0keS6U2LqGJQT6vQPeHhXmCKHF4FhDVtr3WVEIcKU8vj+AZrl+I53goZzC2vJeeUCrUF8lWF22MZoTXKmYamgWZ5SUWM0Jravk0I1ANlZCvEfUQs9ExMhcYjEi+pFkVSnDmqObRXqyESrZMWQxPCm8AS0MVg5y/RHuhkcTFKJeE2lk6wn9Rpes6FlGquSgxYdakMuyx0mvgzmUsvBsK9Ph+0KSZS5xGYjprY5zC9UGTTbE1VfGTEkSSthphnSvUsaBZvWljkDch3rI7UITbntDdaQ2Rh2KZiPd4qHt4wp+KQfqWPSok7r6Obqvi76jJnIyBcTPutmacAdeFWntd8PIX48mlOkI1NxohlxomEh1KcyUWSzEKKGLqmxsmYjgRS7fVhTX+6JclQiI4SN4Kf0/R94W/eV9vAAyVyHkZhRjyDmqsriIQYMFpkT7pnAObF2qOaYTfO0nyzRuTOsjuLq5ndlBvaLHIhBSyWPIel3FwjAijnG/WHkywqxzJzxJCz9JvowXgS843ffTN8mk9KEsRNp0wWkFHyYAAXrBj+R+iWhwoRbOJvLBl+8EMPkWrBwxHKvxXIW2Jg8yt7el6jxDixLVZ9PHtV/TijqYgLFE3Py7khSPnZrwU1NsjyRy3NO7oPfDINj8bfC1BGA2iTcwP6KMCBv6O0Z0Y2p3SZePOmZRqsBHXtxdJdlzMD1IeACH1TTOlpOsQHSvXoqGTV2P0i9ZAw7P6Vr4+kuAChJYgIoQTsXNEUnf5LuAhjKSc2hWYnh2Y7VnVcBunhHTayIM3gMnlZKeiu9YkCl9IGjYN01A+DyDsv0VjEsBls+QhsSQF0EUIE/OcMEUf++SIybWrM3aB+n/eJO/O+jtFqpHlqQQZD1vKGlhbyxfXojuu262H4s2hzYWDEDrHZk8rLBkMQMW1uGGzcxBCp8WPYxnmism5KyzHJXLyUQ3v257FkhL4yJk3dhA+lijh51unGErWvCTnkWVGMniw1B0EYcnoD+5fIQL4GDg1cDyBqBYpHnKG8AiaY2I4T6Lu6T+7Vm6BIF5IQ3SPGWghusghybh9jH5B3vmB76MUr1duVAxEe54LpEAIfX4oxoP9MyxUusinjbk96kKQeoBchBDkP7Ikdyvm67q7yemMgeblY3zRg1fskHgDVLz9z61EiZydLz50UUMv9tYylJV88AzECSFUgihBmrg3aBkBXjjBZ1pthC9dwn8RQl9qDttrq8Rt82H13QbFZvU5DBYPFy/q4eQzSaj9p0tzFOkPVfsabZCF5ZDEUEIIWuxkaigHce+5XBUE0yVZIqatszZrhBBMsHyStzZ9jlR36VwrMsfXTj93sYGCz9HJSdCUJ58zGLW8aPNB0dDa1VbV/Fp5I6kf58FokKq0pncXB7d/h15nZPjBA9dO4xCLwWggHVx5/bWJZ3IgO2P5GXKV/3mpc4F5GWB5QAZkKD628oP31+hCswcShcCIU8a9qejp8GggAYTWNIXSCzRxnftqLmY0LRKtd+6ww+TArOV/P6532kjYaDcYyIGOpQ78SO6DUPr2fQwMGEPjvZhVaXeiU7CVFt7biht50DP8eBc30s6eAdBqOV0Dc9I6mk4dyMr03PUbjBzjJeDxFZvDT1mogXQL++LDihRal88N7xqffVXNvhJVgwfxpfJscRczp3fA1cqO3nSmsQCNlsZTK3SnNgFl2neejwb4rheMxiEWtWKqNEnepF1vKLLoQREhbLLjSEro4JM0YFWD3Xk/Ny/DHRTXjLQAsB0ITQ6imRRLUD50CTZfFrYHtKEkHl7aKWtrNBc7DKDm19P58DTrOUHiVHSxwSuBHYaO2d9CiOdxXW9SkApIb83EB2OB1/5g74QxK08cgD21oVdPsvPz43IsWqmPVd5OTqQIvsaIayGaA+bqU/pQ0ueIuYS90Blza8DOFmAOI9GtsxOSHdvZeZOZEAAExx1ZcTIvYmxXPQsyj89vy6T9Pib0uzqcQH8kEk4Q7aw1b+zjB+uwhSz0DZXVBX2ypHUlyB7ws8kHNAcGnfIpB60CI60hnTku/EEvNMRn2TuYV5BAf4KL84UgBrkJ42cqRllI63JQNGkPSoEuULqi9WuTLrI5bS9KDYsDUHwXEJAnx79IiH4vmCTLeF6uXtX+8gDrNGeD31GE6ZkZq9h1Z5hWsJu9QwBPI2dsVsSue85Evl26qUdqbzkYt1cnxC3KdEAYC4ou7LYAsjuqreGKvU0HwGUF5PyUU8nklOFdHevCkP3zETCxytQsVZ8GMP5NA8hKs//UrOFQ70AAII6xoKk8mVzRrAC09vAlHaIO/DZvlLhI8T54oj14zR6M9QMhfHwDYYSgdEAobz0M8GFWh4v5GYJE6Qyi2BEbq3ZamhW2tIwgmA2doNRc6m64DWMl0BTAcsPd+8t9fOrS2HGqyOukWA8UVAV9RCgUjvgIIRT2yk4IE1pDhqaws5A4AwHgJeBAISDaFmW95+i14WPn+qFZMuaqT+/Z1SCNNSlJt8x8bLQM98GKVZAUVhB+Cp5AlsEPeze7e/XiDQpKYtKPQ9z+wQdVzblJBaFULmP+pFa/hyC8HduDwqRIgU+6dA1ZsIQhXFkSSMMFZxKje5uGgZ9EsEtOvliU6ea1Bt76SMOxiilGqBqs6pqH7pcGEOU/Wd3TSHz13QIATTb3EhtXaMOsPYMYnxvVhKnKjy9Uet4aNg0HFLNko/FooHixD9ExQmjLoV6JzQPsykc5XKiYGJh95U1M/iUADeaDG5Qg/vQq7WdfKs2T8m+QCLQ50ZpCF2GzUrD50p7U/V0MAMKFhHDu6CS2HlfH5lLSpU+EcP4BwrwLwoP6iplNxxaSYVcyepJ3Q39Q2nfclHr3Di6uEb/xUg1xK6E39AHQVfiCg+V686zpQ/Qe3JGmIQjbdhwgRE2zBk1DmuqGws8W6LHlBtYXQj3FTFs7HTzTswnHwWTRanBBAJe6+ENrENyeDC9mT/nqAZgNNho9FPICQHQNGmXglIfBWKmgw5smBKcfZhY7KgBoQ3hCe3h3aDHLEYW/Nx4FA6/n8nIiTE4on6YdXaVNmH3iIzdL+PUr6hAj3NcAIMZPPSeQkaHrPYXyqNEP8EHZ25y4bCqf+ZtJBH4DnwZ3WxgEwWg0Hko1sgQ9AlB77NOcQRAOyi9Vg2g5ZWp0+6UH5WhMi+M67/fIudig0jUAkiEYIICScBjXew9xc/tfzILMjT5gAUEs8EmxcHuL9bFgwPpvsc0C+Sr9mKgZg/AdQOep2MK6stBTcz7GFiNWzeMvcaB2F15AJqeJy4PVhmtjpw+MiAHixXXiHHfVkrHTFt7b195+wiBOKBwjwM9f4tjjObUgIAu2+bSUCDP1lEeshV15cmCHMiGsInwgcTEQb/39U9YzDwR9oX7vpVPqTMOeXXjQ4iSOOSnQE3pWEjMy+H247kFkN7FHr2yBIG54lSQic09Jtppjp2XbZIKC9lTbRJIlbUhNfAi4cLHepqYuhJ0v8SRKIVZupUtfpNdB8aeAZRMEzUHAgM9XJm67gtG84nvRr+rJsMlzdf9ezFXdFVpWlhd4orcS7LAO2oqAYvwtToO8wXNRxjMdycXUAyXR1crTUNQuOc4LJhEeyHEXyM8tm6uIPFvdm6XYDADMxVeBSq7APu4duAc7ejFlAmTch7GTgA3BgH2mayBg2upAP4tDyuJzawmiwLiWKm9q6RSM7W4zoHlMMahZNHNtvDdCUV3IXICiOmGyoLVGY2BRmbH8wpp1Bs/M9TamDgH4XquQBJSR4UXoWn6ItEyVgpvBRrQDK25qVYiBefbyv2v1Emtwe22EdnLazJfuW9fC2zrzpb69C8CBvgGrkwODI3MSV9MGFCH6Oy3P98KxE725x+s1S7ZLtFbLihXiJoQzFIMZEgbUxNzPNmo/CrQLhZw25UtnglpSrwR4c4DFgrRcY29rB0mlBG8jKpenmAFsuYqRQDNQVjNExVUabvYxq3YCEK+CPDV2S+Zwd6Yh9ExDX9hEsZ3zNg2PvRmG+QOHWA9QPWvWLWhy98t+s3U9WlsAABjYSURBVMii4ZiOQ+mqW2ieMSpKaogFvFUlhEdOAgXSCnBY4Zx1kHQl03cFDbCDHitfu5aIpQx2wlSbUbEhdpuu6QYnT3WLWFj+bMrJP/gKLvJUke2A18zmSRi0qmhAXkBDI2FasWrNbTtaAqEBQJxugf8vKMZwGmtvcxbdHcVO8sotKNN7giDmjdT3UjFPMx9+wcmTK6a3WmbskeN91Bvhkp7cddUlCDGClGnDMzxQuSkh1432u0RFSL1h2lE0ADp2So6XJigQeQwRPTlpKz0ynlmj3OqRQiFv+Gz30N2J22YUE6I6UDXgluPnRumBhHONeclmDEw865EvlaOOx608NmKLR1qNspsG8HOXpEORIeq30xSkZ4KSPG+AeCUWfNnNLlQDnpDrLP/e1oslnonVEyTHMdeAAbvUBjtvZJYn5UWJBTgs07c6Pn3YE10zgA33JqmFCtcxBfyCmchJzFNNv1lpDj14TR2KDAHJvNyPXOCpnegeExypXZcChaHr+EYznjapIBkH/aDq+NSx4OuigWfnvteIrw1aK+sNfRQOX6RhDKSPgXhq903qN6UdfxJ00hJDR8+SZ8qyYWRYCWtPb5hWrDSbG8fhC53P0lYEoILH8n2ITrvYJVihAeNRwpEsi+6n8V/3Ay/1k5LPEgzK6dEQRGruIQHC+lINAJr+SJSTFRCEEuxm0bWVo69I32BkWLA65F1pUgVin2JluH1hNQ7B47emn8afr/bWHptEV+qnCZ1WTxSYmYBENHFjFr4dN2NE1htiqrhE8QEeUitCwBgE87FjAahdNZxMql3k/pQYumDsOJO5p4xGShGYZLTbMjrjpDPLb4wRgcNGONCbLBcFeBDAuSPVE4Uvpr62Atl3TIQt8KuRIInPWTsaUe/DRTHtEH1EZ5YAHENccsP/p421Id+OF3H4ge+9DhUDSIfm/sIZ4lY/jTtafW16kLFr9LXh5eB7l0RdkBlQLEMUJvBDQrFr9SZiu8UCMh8zScIKLl6jOOsNMlGUPu7WaPm44ZB5vFa3BpgX2lAmxAdRGwEouQUhTYZ6E7NVR7K62Zs457mhadjgalM6YUT5BNLGeEgi62wj+WsJLHh9EYB78aRd5/yzDWBpXKFEnMyZHzr376t9DyPKge/Q+HlL1lMvZwfKrobXmd4Z6i/lNmh0beNW18lFIh7IREQeIt+7qvUDN0Gh/NRSGNULrG/YHggOG+EORYAA7oSKe5CKqO9zQrail7V5ydUgK9MnLizJKyYxxVOk0FuYgJz3YM8vE52sUSnM8Q0qNbnLrcR5n9ZGKT8R4kSUS9AqoKUqMoYu3p071OftCmF5fzf2+Vcn3NHKatkUgm02JqMLU7mOTbNDZCxPf33ijZYpdiKnklIbaE5fd+aCSqsBXqt9xRgi1NlYGUsqfsXFGDeztT9Ffwu1UlgN+eYF3wJt0LWwEm4vNk4HwZUHwXrXEex38aWWq/f9VmoaRJohDvTalXkx+xDmqIlGOuRMrJAIA2/JAlMkT2XdEUm8XflNOK62F7eQFOE9F2hwfyYVyE5kOsUs2cQ99p0/7QryPqLVC3cmKTk8dOYbH43GAazYRPO5cSufyH6l/Y4wV5TBkOAiyWunQGekdLh88mgerhwB3LiiEXhXsUEkePXoA6PYhyIjPnWBAJqVXo5vdtpPNqZPPZVUHVFWAfZFWvC9PGoy1BN+aahjL/AKrqrUMk/VWwa0IoNk80kmQr+WqPPiTn4ra9XPeas8WPdkb4syIlURSxa94BFlgSrwIh1ivaUiPtEIhGdSWgmxmkTuNCUNkzP9cexdPBdwJ2UxplepSQEylxLOmqhlmWnXTx/UFJximt34CFQBittRwJj4e4t4q0jXKKyoxe+jo9obmg6ciFU2KTSvdoXukrT80gS06FU8QV30L6j5MTJEEBmTUGINCcJa4Qs47kspRlBJ71YXltUOhb3OKBbvK7mdRCVtcNeGreRs+5Cx14FuBJlI9UMIQBKYmcmaTXKdUR/mmnejDNBArmBIeQiMDDHj7mvUP+l5OrRZ42R5lRZ1H7YGGr5SNN1M5Oy9ZdKn7MkeuMY6lwjpWURcouFiF33icA8a2rRf2JR5rg0QawVMtoILgmzNKhXXAaoXo711lUgJ0dHZtlRrSK3vTqKxWF1vF7K2T2j0UM9WCk8LBRaZiZ6gCPiXdp3OdcDyBC9h7lBkOOduQI40AAkbxed4sqVaB4zkvmetulQl5zAWzcVzGepAT0HN8KV2phyW46t9ImEUiGUKmOLFMU04L/9hL193XgIealx+Gpes+V+6BUNyXox0jCl2uif1MaMK0Usj1NFruXnzB7Wr1sqeKUpbLprJZbBruNR5qZ9ymDctdB+oDMx9Vq9KDJZxoPPcDeAoxt3GA9DgS+yrOcRj4xViTJOzo8cg2s+FL1l8tyiFY1KT1tstbkNWPLQFFGgfyDfqo97sMkV0AQSWUrkjV7KhPZwI92YiBfKrPbmfGCQYC0yVkzKJQQmapyA73tklzuiLF03iDE5ezM2eN2XejxLNrcXqDsUXWMlApjE7HMAhRILl/iHVKdZt+jwR37Ga5mZqz9VfhBD1CGDOxJJLAFGn64iu5IKgm72UCg6dK1A6oAjVgWhcmQDXNhXtNiNeZrMhnWx2lQjZ5YuR+hWVfFT7ALymr0mhNpW1Txv7iUHOZW0gXI5BTDY6ZQDCouixphtOzNv9BWM7INWIjJdylq3dPwPPg91nyPkAVQsbSvPGkE86+fQifHXiC6F67jQ6H6U+X2ZO4A+f56HPY3Y5z3w/ruH3IoHnprTL3itOkpewYi6GsAZxsVoP4B0lm4qY3hJ3LDF24RxNnBfoi66VdrxE9ERmBjfCUgx+VOT2icxCcGPuEX1iG8CEJrq16m28qGdYnHJMLKVwnvCVld9JR1QawjNqK90/Ao5FyM4J9lzj7hydhV+/oKkXlOx+03lQ6BtIuuzwk+m3LRrl75J+Iham+AVb6BJi+4ghtBJ/rWVLzf6uhbaHGsJJhXZB8rpPiwlMy8COIN58u4E+MBoYw/clfSXix+EqjuK9UmcHWCFMiE9Jn1IaeQMuNmu3JU7vGwibY6ql5avVpp8BGLhFo+RbX6EDGMXnTT/KTsPk08aIXdsJg5r6AkuJegTDaOtQm36BWjamvTGF4pMKmRpW+Y7sIvETVsTg+AGEM10Wa/lCfdTqUYGwlupaVKxbAhgosl/47bB6LQUbbVpHJ2KBYu/yhm2zXWHhKHmwu1YRatU6A/egqxkLK4sjachLDGwIY8PvvsIdl0bky7fg6mgbvdc0UBkPfOAOKIpCqXdgbm7wFwKVwL51bV8QEpeXHXsk0OZmQK6+oP1+9Ib+xnDujUWTEPbENc9PNoSpqe3oLcjhr9syTDA1ZRVxVhpdvtq3hg+I5n0TrWQLQcmXF2Agt+KDLgJBXgIMrQXHEz4xg/e0w52UNZZMb6m71SA+T5IXNoBvC8LKRDOxwbHyD+aOBWGtU/86fYXmJgFunil8NQeufRiBXMeivYhTDV8RsRmPUF0YLBmVgCAwy1gmCERmOfem7tye/QhgeInEvygIvdroksVG82OwuovtBpEa8alxex0lq2NuuOFa71/qsM+/zE3nQYhYzCiN82Ex5QlZsd9o2aX9luWNe+ZT6cKuGie6hcYdedGpiGQia57Fx3U7H8bsoeWkFgcCEP2kl9mDFgZMbGssJy0MeBBX7D48G5jvBvgyNOasScqN+WDh+2grUCzIFRhchNpNlCtG07kcknkT+BfwYEmF+dPtkhXXnJngHdV278jKR7BO1ppRaBuTX+Luzn7Ktdw5RRUfj2M50qz1FYHOoA3J60HuoezXxVARhISFsb/qSiReTAborFuV3UOH5YZGfcaWKeygE37GPeWRm/kCrDWCjjC7GB2I3J2r3fgS9L+n7BCQFrjl9G1fy94S+/HuFoixcQMHcDZMc60PeFuumRV/G771WQWl2gGOTopP9MNxDVHImJ8pbaMYVMn0DcTo8R0JyZ/L4dJMP2FF4vTyDywLDiqaATf6stnyrKqEJyd6ndoKOTUexspE3nWjQzXMJb8tlGlbGJRh4/IT92SPFb6YkSmMUTyTAe1K0ZW5MQMzSx5gyaOZIR5dfT6j2qKrxFfejUbFbarO2i2ZgQU1B1j+aIww9tho1MdPcTSehMAziiRCKZGhVB9PUJPaAw05UFr143iREnwxsWpL0oW95ngDSy16SFbtPUhuPhnXy4etA2/l5w251JjB7rSnxWy85FRMfBdPHb2is/GQAG5ZatVO//SpMhAVwG61+L73g32jIShOm5cpDD7Zuq+AhmZaWabPt4AdU7ec+HKlq9Nb4qa63yXfEiReEsaFOOOm5QNJs5tm5D4Wtc4eALjSEB/QoaEJ4p/whw8x3Yx48NvBuaappQVGeKRb2lKRBR5MhjN4GraIpDxW2Hot/RLc+QGwU3cDiRFwGsKRVnWEiFnurYM6pdCgeFzxiDwCMCXNAqSbIsl7ipxf6oySH26k/iRuvGqtTj7NO+lf6PxtGsIuh5edASSoni6u4jr36GDSsr2UEhMP9VDGrWKFrNyP5HUXO8NHycTacipQKEcqVYxd42PyJlO1VfyPT7PEDN0APDwSoZXF9XzFk0SPDmIin+BlRzHjTPoDt3rpQalJnCEJem7QhvIjkDtYbF/wtVQ1UEub28st+5SoyREeElF81wx74XHc4foIGMTnM7h+6uw1ePAalPRBP/Vu6Qv/qLULdXuRVXo012N4SSmhPEATwWQlXkMnkbeddIn2gtv/jl+XKeyOsbnDaZctVzIhKBI0F8wjN0a2WSzOgY30+pckMt+rGRoDZrsdX72zw6khe7oE4hLf5/G5zO0KST9J5VRg56vodI4QNXhNIOl3nckIdDdz+lP5wEv5Fsi6NT7zEjiNSggq0hr+e/Go7eOFOqCGaAsN509tTYV2NNAnIAU7/Uuga+YMNBwB3tfrCjvqvqNMwlX5zqh4JCgAuFbhmTiTi/RegFd3DdbkweYJzl07mVNlHLXIkBQm9qbN+XJqOvi8RWhzAJ2OyP74bKUjBrVmDt1gASfhSQyHxDeXLiEY5HfQXd7ujPv27VFrVLs+qI3bvGtLGJ+eBnGKr1PXS32YGWsb3MgA5TNE4dQN1T8xeoy/tOHK87Ov66biKWnZH5Nx3xmY+fKe1J0dls7sIG6wVc3Y27Q3hVNDCULq2IearVUYhrzIW7q55BhgFgun9zPnyuFYslI6GhePwyg5SZuEMGAp6YzORkUYO5UZ7ICe9gawTzx8hNMMNp0+Xcjtf6cJHubEi0J7aNiJQlSOsd6y5hNTf6mwh/zYMzuUZeyZfpFJYhJyTN4r6BtVabh2CgP0vSivTz7j1QmfrjsDS5Za3FXaiSYz1FfgKMXWJV/sF84hJedgh4EK4kVnRU4ei7mDSpf5PoIebcdkWR95l0qTHHoE4o9u4tLlHPfyrQVJshUPpgnVQY0ioTaoXL97REL4wzPlGmPMOFGrjeXcVzrTzrgyJ57jSng8olhXMaplh0yUgLCo27Ey5wHDnrrh3hyGTU3SLr6e5e+iRSVEGiDP/WwkwwP19RKph0+CTQYVs5D+Q39NG9jZic+sNgc8FXHbU3NmX6IWhzcCSqOvbnpAKyqczb1TV5ENdEgVqK1M1hxRBIiuzND3FwZ6axPwsI2nRyCWBgV24lUGdVgEwCoQj2PZOpfbXbc1ujvM1+Z6kK5B81xu+J4EuBYmx/RCDu5/gSL/vXO5+cwqD3JOrcW5rgGWOEkd9ottoR1nq8f22epWcd2bNM9Wr8F6hLUwKgnQA9zLUcBRtA51uICyR4n6lS191YCtaSFh497N7RtNQlYK8GGkj5fGI0Ooor6090aS41yl5XyZ+D5UFpfzRfo6PRsXVGjbIPrSKY/wBNyJ1pm+QjVneU4n0C49nudvDPSKaNexvfUNEgwR+ySdcRTWjgFTqfO+FkizqH6InxyvGPeHAATpclAPGcFndiEcoqHQfsIOAbsxr/3O8Jn8I8UES8XvwI9Xl9ipXQfBwvGetEw4rw7v8DTG4TVH9AxicBl0iKVOkAETgCJPjA4vU14InROKwvRtZua7oVZjhwrEmEiIoHsDQTu9USNDflKJTmcEaTNx5S25gyR/Xb/eIIO1kHWWkLoN8WidS66Vr9m5BVQO7pOMOIfnsP7e4a4cqKV+pUmpNRCRNQozMWoMgoecnyBsc0x++4wM3QnpTEpgnrtOt7ne2I/iaV6mqzRdzONoprd3GMcboPOlNKf7sgt1BFlGTb4n0tGOCPSSE24VhtL++QyBnxgpgziydxqjxitauTBnHuWg1ArkxznFjbs0nnWLSTCb0klPYp3Z5pp84EdMbwLNglv/LnAyF3xW/4IsWgvxYdfBnx9oFiVf9O/iZu04t3NIA4B9hxY00zzROPrFX6iFaZeiRtpFSRJF00Va75SLVuRvIQb8hFYBD12hbAwP8lRxfzSm4B8f4bdiWZSh6BcJ1vhGb+XGRFRzkle/oov5bI1Rkm9O9w45PFxXmd8If8flAYUMWB4gyLUkqgYvohfrBZTBn1u08mMQ4YGVFulC7UEnmEe5kTVBiq2c2SVrO4mD0TCJ5/MMxzx+X8gpufqo4QGeny5JGu/EOguDvIhIef2HAGQQoeqUNlmCU1AOAU/uK7UEYtI1fUu+fB6U0jFsaHUMaSkrxU5XS0uHs9H/0CmTKOGwI9S0kctKNE+OtID4J8hAK8f0Wn7a06E5GjvK4TeqTN9BogojgtFXA/w/HSQPM4wXb5r/lkIpBLM6RV4ytXbY+eYcERhhlL7gCibZKVsLU0GDh7+HmeFTPEL1+88vefjhoEBCqu/B0fT8wZeYyAF3cd+6Oi8MQXBEr025iGGgltpUe/ZLA2pNfMDSJVqgBKMSnTG75KJrTxnGPzD074NkDl65MT7aVJjmHfttFdpp1y/PJlKyJOthKX/CG6p9YOiBQho5o+340n0J7sKC0bl71u8P4nsoM0W4vgLHGAUdKGC3I7gG/UbXlBZMSWO7JpXiyZwEdoZSgd5LvLUX+k9EKW0euv24p+TvDhefCws2BqcmA01bDAX0fm6ipia1+18ihKhKp8lgR7oLIiQORB6cdOVz7K2xwt0I1XHo/zR8/AZB+jnnA3xoIHmec73gXq+csjXdhmw4bAnGnfQ4+xeHdvaGHBfzGKteDXWMWM/iNyL6nxmkb3YDOlNZN/0oocpFhdyrkxh2laRQi2Umk2EP5Q0VFtgJ+JfZdl0CJcns9W1Z8yDVJV88PjOf/6URkvoDJQ0GRMXiAyNkPhvHSukQNdbNHpA7G+uY9Qnw5B2Od1kKbQQW6nhKs7aAzNapo9Lxj42aUD2gKs1Rx6sZOZ7AcXPkQNdPD7bntmsalCNrZJBZTXiQ3J7hTVeZJVjhtXJ1e88/4qh9HpzYxg0HDtaR6U50ZDyvRde5dqdmE8iLo7EGu+IfzRPh5BheKcevCgs/7n34w9EjpXAE0IBctdbasxJbU+R3X21NihO3xXLBoa1ehgD2D60nNsQYSzCqOLXoE5e8t4b+hcFaAVwqzP/WjSyJWsdyzRtlqHP7cGi250c16QPrnECsp5oxRlIqHqCSA3KRvv6aimmOAadw4dUeKnWLc5Zmu2D7nlvTZs6UuaiUdVBbdlhjWCu7wKps8/PRyp+OiMzzHVPUMLeTpTeDKZUgGs1XSnnOVgvKsUpZnsSLQu29gTqn4UlHmCwBk8QV4fNfl8DGYLOOjV4uZsYa/SSwvNrulofGsa/zaV2vhdqZwwy6IrVzA4McHDjc83V5Mxzzrw5V0z+jBlxCym0f21w0sSF22xBZaY035eFi6pRSw0u+8NVVDv/bQ5Wj79jlQ7WKV/JBVKwkP/o2pPq3xzpv14ywU0psUE+plazr3075/uFIVF0lBePu4u74olh25g7nq7pY767H25o8kjhrFGxoDCIEr0JjE5TsjF87C+f/0lD5NT6iO5iimj2Wya8zlYwnMXeBh8zDCaz85N1/CR8MX2VE75yT5z0czuny54uyrkqsvmJEzahUhanu5o5/eeiT5sWJu3/Gc7aY+3Q5+96GubNlydTa8d76QaZNavo3fexfGYOFrrwc1SYqYbxSE90XqyyOkuHI6/X6rtvv9Txv7C/jsl6zpB2KjDExWeiaaXsl8n88IqMsD5slo74fxum6sX7nbXxdN9MZ25Ugro0Rqf9r8XsfvenOTPy8irVz6XrDaJrWRbW7HJDWz8PtuC7qMo4mPUWmcbwxHYdi3dXJ8b8wBpnZ4kS6zMUi+hk7FkZlZVeLq/aWSP9bozetRGM81pt8mUw6rEfgJ9mq2Dau/vq2K/x/ZbimptYYh2tVVUVRVJJdu2pRz/X8v3JdfmO4k3l96YDi0zjW0/9H0OnRm0lV+qNOhesrX4Y/e+js/+iQ8jYvV/X6dNvCmUyPr7sMo16rdBEnk39BZf4f9NF2vFvowpkAAAAASUVORK5CYII=;" parent="WIyWlLk6GJQsqaUBKTNV-1" vertex="1">
          <mxGeometry x="20" y="110" width="100" height="100" as="geometry" />
        </mxCell>
        <mxCell id="TgRBGbH7u2lKpc8eLeI7-5" style="edgeStyle=orthogonalEdgeStyle;rounded=0;orthogonalLoop=1;jettySize=auto;html=1;entryX=0.5;entryY=0;entryDx=0;entryDy=0;exitX=0.5;exitY=1;exitDx=0;exitDy=0;" parent="WIyWlLk6GJQsqaUBKTNV-1" source="TgRBGbH7u2lKpc8eLeI7-2" target="TgRBGbH7u2lKpc8eLeI7-10" edge="1">
          <mxGeometry relative="1" as="geometry">
            <mxPoint x="311.95000000000005" y="295" as="targetPoint" />
            <mxPoint x="400" y="151" as="sourcePoint" />
          </mxGeometry>
        </mxCell>
        <mxCell id="TgRBGbH7u2lKpc8eLeI7-2" value="" style="shape=image;verticalLabelPosition=bottom;labelBackgroundColor=default;verticalAlign=top;aspect=fixed;imageAspect=0;image=data:image/png,iVBORw0KGgoAAAANSUhEUgAAAOEAAADhCAMAAAAJbSJIAAAAq1BMVEX///8XJkoAADYAADgAADoAADMAADUAET8AGEIAADIAFUEAE0AQIUcUJEkADT0AADDw8fN/hJMAAC3g4eWztr7q6+4ACDyPk6D29/gNH0aipbDLzdMAACvZ29+eoq1VXHK+wMhkan2BhpWtsLltc4WhpK84Q15BSmSLj50AACPa3ODGyM4mMlJoboFbYnc1P1xLU2sAACIfLU8AAB0AABctOVgAAAkAABN1eok/6U9QAAAgAElEQVR4nO196ZqiSNMoqyCyKTsIolhCudJW+w33f2UnI9k3oXq6Z+Z9nhM/SksRMjJjj8hIgvj/8FvANs7eRY8i9yMIPlxXv3hn1f63B/V7QLt8rFOJjO/ZwfqIdF0PQ/Qnsg7ZLn6KaRbo/v8spurFupPkLQg1dfyacxgcH87OCo1/cGS/A7ToRsZJqM283AitHXl3z390TL8PbP1o3l2//4Xqe/DXO2uGMUCZWnR0bvr4ev9HwAgeL6uFneFfInj1vhZbF72enwt6QXnFt7amNZE9B+nV+g8vpRFc06heBBXe6hvKZBP87XKHP/YZkinmQLsrn19fr4/mTexw/0zmkvc/C9Ej1uv18Kx4g/FACJEsXrJVir/xaZLK5Yqn8JJH+A/62qHN8P50/2sS9nzkg2qYaPxaTK3W+B+bFUmJh3cPAX+AUKbwpcZSYmGxDJo/5T/cVxRgR9d7Scn/BQgf+4qxwjWJqTHl4/wTZueQ/B692W3x/x5DLjAiR97Z409ikbrgN5cNu6uY+Jxdo39k9NMQiFZFUtmXybN4/K6crxTx3EWILtFg1xv8wYUhWbjepiQzxFccef6A3yDk5Wzkzv8a2AnZmunQJBm8nhpVjD9liB0PrGdtsQC5mCRbXJmvJZHxzh2/WQuk+ECvxqnkaP25/nf1h51cw85HgiRY+I0k5Ix43BI2LzkPItpi1MMCw2CVsycm1xxD/iFKNOCWsD+Oxf281/pfXEfrGfY+O/JizoCZcMWvydZAUpM0A3+rw/8IwyX+vryQSEUe4+NtIpKkgRGTpV7f8XI9/Es4Rk4xjAvZoCRdJhU8oNBcYKXgbtDSHTiJ9pSguICG173j3PKfOMWyr7fqzpGB6CWp9aQLGfxJREbAexZP9U4bbl1/brBkzoDqEg8W6Xz49yGKJwHLk0gmZXhF8iX/mUGRNJalwpNIeB6JGn+TdJ7mSpc/hskwqLtbTjnn3Ve2XiwbrsFTKiTjQyhoD4w1g5UkHq+Zy0kOvFpCTptoUSXKxhdahG6CqEk2fbM2O/2j7kfwzIeg7Zd0iOZcbmjnAy898ZtkhSWJtsEkiFRGzncfq/x7nxVf+Lqdw2MVsUZ4aRS5sIlSBLXAeFl/BJch0K45gRrHL0FyTp1vL6VVFpoKvNibfKnuAg9rp6aCk2vMPUfDxFwoKdecJiDOkfT5vO0SaQ4ROeCx/AmwHhgBdc0+tcgkYRGbgDQ5l3sTDIVfljT+137tAFVrf9/t8kXesXKkRYygYArw8FqnjhwG2x4mPv7ETrPuF38AjKubv7lsQbWTknjtXHF3cvILliBJ7FdmjUnCy9H83EhZzmBrBdwmSxA+Yql7oc4quVbUxT/udrjPiuHTBcJQR76Q3r7EV0jhqGrBNp1xP7tQdapuYrxCU4zNLpGutxKp5MJUffxhxbHLyeQCY/D/L0R/X6JEdi4KFWbx+fPaQfw9aDdawY4GRYpUm0jt+HPtkEz5r3X6g/pfK0zN7AtzTi5PaNLs+gD2JfSaw9C8KMnu6UtyHFESHYd8xLtjEl3aFHfBN2fIzoz5JuVHK2dXf8D/MYGjSxgn/ykUGg9DLErC6E+M0Lo/Tjcr6sRHbRVhbWXxK006YbadLLSINNpeDaRQVg3itE/u38DiDazzadSuvESy9TR6FCkP8oYf7MyddXmvqFUv2JNpUN/Ozz6bS3RUwChf5uZqPZT7dwc/B+JK4QKvNCgpdSSzyxpqtGdu+ly5p4aZdI8G3CT1wQoGdinp8qMPTD7667czoyqG9T/IPhFqzeSzZJuw1Ch+BCMRM2NM/hhu+vjoIOnJm+j4M0HWahENgKd9YtvPF3+zEWcwLSpBLi1bm8J3hzTvFaHqp5c77rVG+9GvCFtPT7XQsoOMWqCHeJLzKmwIgNRZYWFq/F5545ntGbMZSeIqOvFp2Sl43zg41tvJvVNvH2R/kMdy5JbC5KRhrUiqJPgjRzqmgB/Rc77/BlxIjI3xsU6Ku4YLkq+4PVBKRyrdTTg59pKZcoP826l4iLrPZVskS2LxpUWTzoM4bjAPxN/SuO8gzM3IbCnzAk3mbsSRJ6nyAVG+mvpzPckbuslPm5Z2IhUkkS8ncj6KmEa4JEUePS3ObfX0N2kNHYJDhCFuHY52SFHJEUOmDNVkN52c49zsG8bJO3DFavC2j9RR/kx/ifQU0OuFzVf3/lscKh17deflXQMyNEmycAWWpBOXViURTuHn7fYIbo5EOrsberf7eH898uoL4bL7Egt3zOCkQsBpdKGQb78BxRD7f962sGISipQYjNdBIJ2fuSjwX4eRX9dwFhnHQQiSJHoRlBksZD1zhvCeJg4KEFeHpPKl9ZjSxtn/bUP8gh0hXXEe5XMZsmAlUnDwEOz9blZM80iRBcjzIhL2Mc1vHHyCZEl50iwCQocyxoOW+G/yooeFjPXTIcsgPbHn87AKUWjhiJybYNDlHEFzesULOBeRC8NQQU/whfmt0mRtp6Z/S6JqecDEN9D8CaV24CUs8W3MJ9+KnoQYxRnStAaXzI0j64snnVfxYeo0DePX30jhqExFfieelAuR7XJmNW3u9TvGU8aTyDfq+ZNvwY5zXtdZ8VmMJpPJ0pnCnr/z636/VP/UfjoknT/LoOhi1uzT90QZQ4oyiRTp9+ytKJ9FnyoMvjVyIUtFdQTeUYVfzW3EQIxagYS6EskF5mqblfOPPP57CWmPEUiN2DHCN0W8QWKaMcQYzfg5lklJKaY4MjFPa+KbX7+BNR7Ic1HE3jVKIpchDHSbi6/DbuSHozfM44ofy28P6JiP4f5lgtHBmwWCa0UkWcA+/O5QMOhYsuwUqlSFHpvnqx+5VD19WxOVSvBsftst0J95LuS1ZGj2lhOlnSq3WJJMeJ/8gubXsJ44UL5aiRVkFUqMn2JBYfBvJNiwX3+uuXrY+n6n2bTCWTK8MgKkOcohNEkqxP+l389ryLiS4meL01yks5UHzjGI75g7+6X0tDYe7iEg7trWe7qiRARdezi9MMMU7EL05/yJ7/qoBnzgORwE1R/DvypA/iW2+Ph8L/XTJlscNpxP3HiSLhE7v4Z+Mw4RaGXb4Xdwg+OmMkLyEELwPtbrU9SvRFFO5gRnH+skXqqcVMJbkHRNLcFsSwnAwLyGtDzvIDK1qC0SLjsPAmHw+eH2/teJIP+CJWWUuag3N8414j0RFRgIKTr5VBu4DCv+jm2DQ/fW/cqTIhtqP4KLTti8EuZfrqesrqfk/EK0z+VIdspACvB9jQ1e7YSTIMtsuCdWBrfYfsvHbUhK521PI0egiJbo8gavzGE99jPCPWbr9Rq5/6SAXtfZbZaA027wq/UDXEf41fENuQV4FS8/4GcKKbh2FH9+7q7IVSWglGrO4/Aja2oJWPTcnDYMFkdrknEEEYrbFc/z2LzmeZOeKcGN1wJdjl1H9Lo9vrs2wN9C3CR2SDH9/Iwjdc0jKwc+v89VGc8GsVxokeSxYRjgcpjg7fPR5KxKJ5BJ54ubAysVv3KK1MgoWMUMh4rIsbFroPlBrrijH5D6sodyxwMQtESa8URuC1oN/y94tD6ZMcvMfKjUt0wej8tR5ONJIzorbpzGOCx7YUSSK9NR4SzHTO3mJ3dozEuLBrvoMkPpHDCVct9U+gYNv5LmKLVdU1AHCprMGq94jj2Y4ovc/aG6OEE0RAMXG9yM3z9E5AGS/Htq7gH4/+hn1Bw/6FGjcadJadmYTPU5/XMPy5UTw/NKlYzQ6dy9Nmc8HwkkUTYl0pwx1AbcHUk2kZc9a+n5YhwqsCBX4mvDUibTN5CApO8Usyp8JQwfCtzzMUelBiv5ofoiPxnbboGtOGxEHClnlr2nYYPktmMccnWqZl37CbhOChsX+Fj/YXmB4NR624LhruErTUPW0rulPClYnd2Vb5VN6MoVJLVObd8IYNtXbe0MF4SY0F4OSdfMoDu48EV/p80AVvAHy0E7hvBaXgEBfy5oetUfFE05NPUcTb8Yn8XaRV+TaDUgLUZqPEepLIrxo+lPuAJ7LypTp2bPMY2EBQz0+Z6VErgmyUNFNptmCrvkHzSoCBUz1iEXCKKg3IcdgbC6//kbbq5di8dhDO2EkkWsUMRcljzh8d5n+XWmIP1PX6Fm0Htr2dgQXzBYPi9eMUUQ/JKowIIVAuzhlKqZ/ZYt//cgkitDQslnNheaRU7IRTKKNF8egUk4fueEHUICUj2kADJNW1ILijFlvJkgKMIE9pMvn7V6/kM7I+w7XZo80rKUdlHF594LiW6eriIE/ptFtGFiwk8G2XnM43xPVdvwwgiXFtYxztQsURSVf6SWLmSqSXVWNeljve1H2p4VEUFlDQmVji8izn9eVPWIfiQyiwYjNU3VRBHLJ5rxny+JXFc2q0SnDSliQ7rGZigHfR5X1GRrbxex0iX+g0G3ZaolcluVCP6JLnF06D+8jKEkVFzBtKVQBIIgpElBaJhxHrhRo4mfoHGHSEZ3lskLlm09mz08Vcu44n5brrkPflxxINmvhD4BNcZmUwGGV5BE3pjJ2MLDPrBo/U0cxN21jRkvtOIKQ8Sypz8lcTK2fgx5PeiXtjlgQDxM29ZDDkRGxGm357DdoAPBRVZtBaWUREI21O+YUtEPofFkJHHY4YrXvwkhLzSfQvJKl7/WIVGYIwTEkNht/CTJDYxw2HWDMiNVYb5qzgpFTPq9/FKwINvAPX97MZ19p6T2Q4S+b+rUQ403m9hzV3h3TvOLBpxhhrLlPmvQXAhKYsDSC9gOiuJyhsOrHh/pwZ237/ey4juPGArCYiv6fNACXlGOPq7OyuOAZVVMCzLEbPZn+xu869MZGFKkiJ0BMLv3I/eDIF6JDs/R1MmadFLqsEbJ7dSg9MBrZVJLE5jL5qTCpiOMoVgEuPZ6w6vTDjlxRoP6wJe6c8yP5VvOR4lVTIZblQafKDDU2+1Mdix3aYQdtlex7AiWuT2TOtKyVPYDilqHBV836Df6ZPFEjEUhj4vOMkrLwdTKect31gMzFTfOuWfe6VxtnsbMFJD/dj5qyyyYcI0uDvvrgj3Jo9Kgn8AEf2t4CQG8uEup1JBvFnB9/GDQ4dh9wy6FkuS4446Hh/nDK5lQvYIp0JM1OeEmK74xWdiX7dXNY0i2C9bsIoiGPSANdLN3GV7xsWx+sOxfvGJZdiRIVSpx28x3DfjHjQkKI+vyepB7uZRE1aT2AzmzlxFXPekqjIL4+mXmNuVw/blACz5sJ6ypgWvRjePBq2tDDDEhoyKlsd3G0RHh4HUHXtTcnhxSdopdxi4USo6a1h/KAHchedN3sa00igfWcZhMb8MrTo8a03YuPRETrryI3Gyq4s1OKt0oa3F45Dlxys4Nw2yLZI82Hhm6MF15gMFxenOCcA4oU+CFlvg1h0JVu64QxSC9M5owOV6WpPQgt3xQk9C6TaZBafvYKfgNDmeaHEzO4U3ETE2ZoeGI0pAisMPkYCVNFIfW8D4olYrqshHQYHktjuTZuHVHry32GsF0/UqteMcx8UDfx+YiejUwIIcc1f2nBkOafZ9kP7SCvDIRPbtCZm2jHJvqB963pKndylr7wW23xwm2Aa3SBkvoKn5AcSw2rzaNvVXPzlsP8KBoHqecbGxmtxtq2OBw7Js6VB+xKidceFs1/GxATo6lq/XmGvXK287KwGTtQkO1JyzZrt7xrCt77iB1HDYw7LcFCb65oShzSNyIw78LWyj0KqMsYeBWjkxT7Nf7UH0zsKnqN5kWpNUH2H6Na0bYLZqo3TwuBjUGSS6GjCytvUZ8Vz5KIzeTHxN0inkJvGPfeixlmHLHBAOmsW1QG9kEkU5lYsIhNoQnDJn2u/ZyO52HBoOKgnSW05EgkPrB9SbQ4JmLAs0dXcgOHGoRPLJWdncD7AAch6Qp4sTesOy4Q4QdUvYHjDVA8G18twCQKdrSkUiJl5cPXJgBPX4u9SCOwwbUmPzJQQsvehhe7oN6X2K7y3/trXY7/xYP3+cRYnjvUIYwUFg84diUqQ1GHEkr3t5HmNY/TNOUBwdGklyHLI59McI0h611owYlisj2MDeP9+yiAioHxurKy4oR7Y5VWz55KhWn9xz9BnW1DUl7UBM0LoiGuRAjyU4m6gCVgRx+RZteW6qp/7eJEwN886kbGw9zRP6Rnf3P6cBSS03SSYZUBb6Kn6rOIIr8Zq011TAn1qjUMkHnFuGVh8qSjxmh3ug6gqLYovyPIQtWau6eGcNQIuekuLz8IjunPksxTdw6xC+XdQ+1Uy2RdWWKj9+Cqq/vrxEMhRYBXAfJubk44bC/iRZ6d3SnxSnYiWeO+gvI0mXRwvOK31AGQFB6y02y4KspNlQZlndGEFy1os5jbj7TuOg4hqLDmz/D7rOHMPQpGrckQgjS2RqndUsUgKAsZrW3qiZ5UOdoTBcN7NkRScq3SEv7SQ1DqztEODwNyPa+Tq/hGq2Yn9efI5kFbae8L8SK95wMNYjf3B3JEUxKjteRbxOQTZ/0KwgoTRlGUWnZyrY6Cs3LhjWiGM8pQNERcsYXxmdXVFhAVZ1VdNgCVBxzxQOzOLzMsFdIHVozykX8bHBUUC6kBoEL8BG4EcAHeguv7kfxgj923eIyHzKhgxjiauUpwHIft9MwqIK/oUuAnmtlV4d9vqF7fC1oGaOJmzXdpwSNZr2o4SWEzXR+oq8pjlsk+pHmOJlFTw03MkfHus7LHJPqOi1znHnV9R36HicFHoPySDT5d5GGAsAEPMHapcUOx4C1KhkL5V02Rsf2o0O8QB4RcGa3oUcfss0IGwKGng/TCYaLyyFnI9+zyJLQOQlpGMiBQaAYnERQ9tgEOg0bEBI1Y6sbjPaDve55h1wBWncFMDRyu6O7t04L430xKxPgp8OiBsq8PQ+KhQsMS2/3xpcYZjmG3Afu0pZjOGQWIHoi56RgMcU9QbY7K1wGm2EdkzvHfavUD8Y9qjYYtyFjBRIBgOGaLzAsy5t9uoMhBNxUqsAwG3DFpMe8vB32lNSYZdhWXCLHcDDX1jXlRiAZDEWlBYZ5ezqXwx+c4cki38YQb39FE48x/BiKtPGT8gCDmy+05rWvjrFQ73uB0BMnmhbStssPeodCUGCosjmGMP5ou0Fkc5TbGOI9Ysg1xhhq9NDdnOVhhot4GdZteHrUjmZXw9unMUtZ2Ck7lFbKfVvAkHiJGENo20FjXyKgWxiKeHYPfI7hoG0qOaYwg1DPHc/Cfb1g/xdYAoTWsCDt8PBCohT6Ga7n0L93fHZz0QDAdhjDA48xXOQWi4KmetHCEL3YZxCmGMMh65Xm7rNKTrvrFMoMqPwERuEXAVf7kjyWJtaH0NdwHvkTuCvG0CJiDC8mYChf89poWvMeQgvDVYAkN3Q0BQyz/hJKz7nbQ7s+LmKLzaVwm7BI8ayYYnCFBc8sKOhCNrPS3u9lMwH4OO/OZS8AQzCCIQwlPWixLUuRKA0DYFeEYTLEhRI7d6s2KMT2kFdhIU0gyGF/CdApVqZNfu3bOGI8Qx3CRP0li0NRQMZFGGrQ3gEwPBb2CrqwjSGlER/o3UriXGMzgCAp8j9maa3cjcCFhznYtv1E4lWH0D2gCeH2lXiLzgTu54e157wba0HKk30UOdf3YD+hpaAX6gBdz/Iv2hgidljHQOhcNChIndehE4NSxyI2oPkC5fF4ihzDIkCmWVSIWIzhRi7SCF+lgBnO/Q7Cri8hMIYHlfA+EYYLxAclj7UwBH5NVyBEBzEc4EJjH44MAjxElxOBoqRyDAWGua6MXlsBSpsrDLt2gDEW0DOeA6YIxjAJCRtjiB5TOn8tDMEHAcGty8NrKFFdg81ajNEWrjkweQFZ+bJpmgxDMx+FkCmsAcI/bj934bYUoV0M9REbR98Ohb0xhrCB51RgWIbSWhgiurEppCx9eoRKxW1bzRm+EozIeJCMupwgZyzSw8vF87QdokofrPA64KQGzlZGelCFFe/utz6MBMDDQ2wuevI0x5DEhsM4lSJHzqdlnbDZIQwlmnod2/2x+MN19XNYgYD/ELWWfG8VqtBtfnzZbTc8Ddqzu4a3LTEOPfubA1lqfSJGvOSSphS4kK0oMQRRGv2AreJPuY+h9OyvVrCRnheDGGoi1tNuBuwqxGvotmndSGT5PoDhvSghJwzr2d1D6vUC1vkawpaUEGG4BvsNiE6oMFxDT+WqRdmdHlhDYSCOmAiOgnQoK/Swj9sYqkcK/ETsAvdN7Dtg2KXSI3jp8Azls2fkij11ka8hnYHmcel97vuZF4uCGArCFkJVXNURBgmQIT5c9oSbnVEgaZ5OtxtlLksboP3FwNOxpOljaONER+dDK7cu9pt+2cBJobqLmK8hh2/imnHu+9GIKJkU+/JCQthMvftLV3oYPheLxWaAGmG0/oKLko6ZNixjsbYIhzNMvdayeKNX8tUnHcPXVCLiBjAUsPvnykIeqmChLBsreHJlETZdZ/L9bRdD5Iioht9ODR1dw4akyiW6yBy/aRPqsJeLbZqeq2tj1dfi3BD9szhCDBXdVh2YWaNTyVRgiLeiId/CgC1tQKCW/ML915gQufZIlNoeAoOwt253DZkuaXn+XrwnsIYH5SSRQqfSGdZQ73l8mEAxM+Lt99CO8phKDAUbiVu+hX6Ard15xfF6aPNVyostE7zAENOhy0F4b89AS/a7w6Dp2K6QjDnTSJRetgwDuzb4NoaS4Ih02z7TaScWzd3Z0AkNPapb54AD+NY1urROBMnFKPYdlThltpvtdstAx1VIbzZLhQnvC/1uB+0sVPFzwDW2Pp00aaqMAkPc1NnlcHX5AR62knAcDtdHmgzeoo7F672FoXQN7iTVtv29F0IrVQkt0exQJkWvLQ5UCJQcBeQVslyaWToijENU+PHYd0S+0+meRJ6hISbhoVio5eNrEH/31OhoPxdDtg3uTdosxiwwxOV5CIsyy+TRZNWM4LB64VgVzrIlH601XEARUMfGdh9R3pFwrZoOKTJK63u8TkWwTuQRphQLuRnsx2Pf8V64YRHlkDT2V9oilqeR2D/G1G0xmlQEVhS7GIL1izAsu9QiiVqlTkkISuExLSGhXmOIbjK0ldRCqhV29BDh+ZIu483dJhp5ciw0KZpe0KYoOngcVJW4AC+iaIlyp0mx8DnboZ0DbSkv3fK391EHxpV5OhVrDH3AEPBBGOZd2HN5xOaCSjchYIUD+UiL+DWGYipw/GBW6Hxf2p8p4BpoyNs13M9aVsCCAC/a58tpd3utKJqHSEVuB1Sa70zyiELLU25ai2UoZGImIfTy8VaDCBIPaq15ZoXhGa0h8hwpmwiQTYqHbONAjAh1aITGAL3mIhi9UWsM+YQInl9Ds5hR/F2471Qrz8OHSmM7dYOp8IEGqn/AtgH+pIx5u6xIMvXktRk9UQJCDyMQhMOFdHZI4EShmG9Wd7WfG3qFYJO/0HKWUSa8W5mL22G/4VYraqPgD1aLzY9C0jhOvgvcGyqS8NOXw2x2BD5MKoGjQCpPqBb96rroix0AKrmXW0TV9rQksYUOhms6eYt4a9uwR2Xf89ka4Jr01QLhwbmqFYzCwFe+hqs+jztKGCuWNQLDTS5nXQ296Ea8Yp+pzb5itFrwYPlVzl/pocqB4niU9oRWLSWFwu7TbjrjdEf0bBMK9Sb8lZA60nOk83Bcwj9D2yT1jADY44x3zaIPYZ8nfAip9XN1jXqmTjzUunnpWAH44XnDh7OcI/dTCunrRW4UUoNZ6p3YFTIInyZsLY22URVHxGabjJWo6ulBtiNZCJgmDYWDZ+UQJtpnxkPXgbE4HEaCFiTbcbVPGnYzJBuaVtAztjT9qRHGD5qGJ8OHGTTWp6kr+EQ0smk+tT2Nq/nGggn2Schbth28u2tTEu/cKiLFWZY9YnhHSSJZpiVehr29et6kBeeAY1F63pcbAPqaQq6xaa9GmBxC66Zk8h6O/BsZBID3hcYuAF9BkBsKDld5QBiJTJAsoBDRf2AF7B0c9Q5WJPKAfyC7XBktvPAN3KbKUW46YalEDIqUdLZlrBGj8uBN+u4RtgldHTCxl/IHaPhoUsx1t/4IfdwBy6tybzkwuNI93IUeLEEWvsFQAyqWfwFDSGOOTt3Hc++DQUsqLuESalExyJehRhySo+MQE5fP0yaFB1zKHxCpya0nn5vWerREMt47WxcD7Ld3wiaHn+E3MXTVr/e1azyHTDb088TytTyZ6rD0phw0bIJQa3/K0/OblU4uYOr1Qwat2stYfhk/N4eEOIINN7VRDbkf529iCAmMUbAj72OFNHUm0D6EYS+sDL6YX+VW8Bbtvj1ZytpuTVT5cXOlbHEVB9fgAb0BQnaqMwNBfB/DdxBu+bWQomHyi8jQvfCMXOnm4Si4Lj/r7VGpaqJaBpofBQXGfstBMSRw1Y01YEjNaMj0XSp9f7cfDvRofmjupazY3m8bTr4FI+a5LvdUtrVaVfRqa4aWV5y5xFK2UxS1U5DPkXzYcSCPbdH5ZQynurb4yETn1+HWOrslu2qN9B+wofeyuj2mshYV40+WfO58CHiTSjfBFr4+Q+Iesik/XacByHwHw0nZRXPyWt8es0DZWnlVdw026HsDiY0j/WqOuR7mLTdTUhmSa8t4HSRPOIIh6nWkPgdWeBTc3QwM7W9hOLhFqAVpkOpEkFnh58knPNYmzrXsrcu3VosiJIiHUJNaTq8BTfJ0ualtd2+J3xrCFNm8MwrAidV3MKQnM84gvg287yAiDorinze7W8ldVTGz96nGPyoxeKmFK7ZqCFGi6iPc/E/09tGgBbvYNKV7x4iY00jhJX4Dw8XbMue1Bg6snWBxFPzwkYGpypJTndcKHgQe3QGCXT/KmumkQRggU1R20fhEAzL9aPK//wUlGtlmk5je2y5DBdyc76zhuzudP2/I27GQU62B90aakphKyJNfFAuAY2l45+vY1pcAAA/dSURBVBZ2DX2nOBKzecoHLLO6ba5MAhH5Npn6i+1eM6A9+S2Y3Jt+IAJuPoboyjelwNFmRSSp9nohBszy6g9R4l5Vhz2sPxY7N4w2uud5vv/A9m1rMwU2XOvGV3DKAu733K6RV2OWTTFl6J8TfBN++T49H8NVQLBvqsoD5Gyq5+0Saq2Q2pCk9u5FMC8vjMOZHCkzDEObEgldLFvlo3ix7hWLhg8zp5uuNHUpeuEk4O/d3q5iYiI/iJmPIXX2afk+SvoaRB+RjYatf1N6QLCqNmCwtbbmpSZAZV17MxeQ7OUL99oJMxO5H0VTwJ43GqX09sd2Z0XHOBgd0Z1BDyEO8lwMzRdE4Xh57H4P9Cg9W2PRGKwY3zAlaVMpixRU4Iq7Xq9PBNjnwAG9tsGCzZ50QT85CnouicuCLW4D1Kj5ReMHvTp7uW0aWBBBYy7GZi6GG52APWJ8e7dUFUs4gt8m84oGxrlOKTrSCnJ9chHQn9G3lNtGZ77V1H7AXjtJ5KlrSeX++3azeSPKnck0+ylYOIAmxkSWzsRQKnbm8Q3JZj+WQt4THodTaLQwyLPIsjy0e67F5GALDKKtKwBywy24UgvmWu4RhlG/3uuF0DlamdxwRUsESTg1cOYaWr5a/EaoQ30R4BS7x/UdhoG31DiS8Nm37oaTTgPpwTB/tRsHu2/VQaerAf5CzHdoixWBHcoslGRC6HgOhmpdxF5vuw+g7FFc8TwTQPdwCddrlaNswEgrGsLvymat5xCpGQW0/nbXRV1rV0Uu649EEF/JFIbgpN7qIk665L5ndR9WIyxZjDGGbtA92gvsGXWgPqNfG35tx8/OR+RnQF7AfeO5ZdXIhHImm+V3ztMgwoXsjGPIC7BR+97Y1SWWbKFVlfvOgwiVT5xF5lcrfDJtDSGIxMOAZ9JfmRYml3QB91PcwUsr2NYDiw/77LU/ya3iGpFGiLun7RiGO8lCc+C0f7N47NJddjzWuTrKUxMdqhsF4Ph2O0PIk9pUo/I5yL++9G0ku06ER1caGQ7CMosAu2B8ERvFdjzimCLn0wSOs2zQJeGn7FANDB15g6sYiOhBd8scRMdxeL6xgyZvFGoJnK4r/LN16koIwtxaiWy5NV39Yo/wdjcQt96DzHIJ1WJkkRRlrmqJNb6Ij4pK+ePJoUyGaddiSqJQthO2w9tnjeHmHhWzfnma7UoOkUe6h3KcpCoMEPM6+ECRD4Qft2MxuNsqVCo7y3uusEKaPsChewPDxcLnsKAFoK5mk0133FeqquvBYrQJzzvcFiuwjcF0dBj+VbpjGuzvtCsM0buqFMuNnxQWx8ByAp2uwwvegF+SqVT6cHq/V0MEkt7aZxREu9m86dp9iS6zBmMGT9zrC126aDeYGGwUlUO17aneaOcHGauwyCpSmmewaVtaWBuE+kmSSx35mldKacyhkTHL5YlRkDVYP/lZLu2bQ75wX2PIfCQUh9aRAr/gBIQ7rCSxZjny1L5rqV1GzX63bAfU2mg3ALZASjzyaUKWSZAy58TpuIVQFlGO76FLahFhW6YMOMbuD7VoHzUAwHBaN/QM/452aSISMpf0Ivd2S62Py8dJM4W28QdcXtRs9TMIeVLeMW8Dyi6HTl/ugEdukwOVUF3VVwEm3q7mh7oM403kKUJmDbe9JNs3IetL2R1QzghbL+qnJPZtLMSjaJl3Vu8is2mX2CLHzPcJjE23PZC5C3F3H+vNfK/jY4A47M35xpd6I7fiE6tKdFLvLELeVPVs9+68M9wuufO9jg+lGm9gmhW84ZeUqt4pvCHzjbCpfts/TLuAZrcEJ23293jTmT5TJov08bkrfJuGjS9orzA+2WpOjQel0P4BtD81gT39ySj3eTNCUGprR3vbgCmPzOiBr0yGZPfwW0tpTJLv+Q8YxO5NiAUvIinTmKe8pwwdjCJ82sVhcudKvB0WCa+RTYr5Ko6IkSs7JWrxEU8GK9FpdYvtkoHTy8/vTjfAHZYvYFAR6g33563MO3JqD42+HGSr9XBDunJJh7d1uNQUzeQHkoDJ5yzKZfTvEFUg0rfNLnBH0Du6vUvz0J+3Zllt8jw4esi884ZbllQw2I7IZhZTvSNPeEPTQRdXzZ6DUBRxfr8HHffTVT+DBzJ8hVXL9ImmmkgclwOUNdxroMmKA7SxNqeO0bAqekmA1JQG+Uz16wmA6YIlsr2baVCc3L9P5IcuAx06PkY22TfotC+gDJaaWEKvEew9Q3MO7ln+YvoQD6wXrqLcag6sY8lGTmwkY/ux+dHOIDUsepIv4yYyP2rbRgxYBy3IUcUdFab1Gp4Db9u2NxJcyKJy73+9b2S2ime/FTPFInb5RlWY7n06ULSv1Ep1b6RI4vAKkHYwdUYtggf8/NZiBI0i8ZFI/vtDUqJed0N5egnJ5oGbGCxuLHxWACT0CXtNU+yrNAsi0yHhwE174qcYDEDDVnZWfZ4LUmnCT7hZ9FZOGYvP9iJHk1wI0C1ofvSbTLXgCF9rJnT1Es1y85cdL0Bj76ZkMAbsk0SUWZ57CH0lzSQvxgre8nHXCju9U/Y1LNvzYrw/Yc7CNelsGup7CsoXwvzjC2jWy8zNivjkv2ulCzVWqnll/W5+Owhqw61Ie9AtU3hrzrh4KDvMRdoD8XlRbIkb7PDzNr4SPj6xo/oXrUTjCJ/7/HOcghVye6f0IXI1Bru7jUCEjR3/RzEL0M+1Pq0tm90Av3VCY2CSvIRXP0+YzkfxJZuLw3D3kxKkR2QyK+V96qABeq5HLLY6152tD3n0vjFTjS6ryLjlMxufZGHnfTbnHmiu3q3QJgZbstRA+8TFmncCHeBTKMqMq+xWfUGWveFWM2kUoHG2XOzApgn/Z0hcrnxe7bj/Rhv9kQZKFXzrgOeoxOvA1/asxRUHL+3mzhOGoETCZfD5scQHLW7Zu5tX82XzD+TaTYlTav6grErehTRZ0SlB5mf0Rd+ZKwSn4uhWmhTWcKCcwqZRTQTWXIq3exHtLjCzNBjAEaNgYB5BBn1Zk06ssWNqzNH1raHJGB9Eoy8vUz6v1fbbGPNiNBbN6oBH59HhEZAG2piOQYov9PNT1vwNYuEie7vHPma/QfMU5BZazEv8J2/VKjiTTSy6fHNWP4dIJqXrcwxF6SHijcEzQOVDfL+/5Jx8dAVOkYTPLvgwslndpDrgYqJ4mq2u0QFdujuqM0f5WIKoeKPCRr6QjjijzhHRglka2/uiFjyEI1SYZ7b7AdT6vYNkS8D+YFtThYpYk9V9hrxZK45HjLS1RHTm2fFyTmsDq9HqPd3k2lp70I7omLhe2ZvX46IH167ndt6cdmKdonAnYzeEDmmYUQwhsu9P86F9aqmn67agqsv++spgbY2Zp3P279wJRqocZUh4A2GRPdfEWb1j3mI4DaGAMdKOBWKG2dnU0h3nN6BzZuVre4F+b/hxRY1jNqfJC2DYU4vwwSxNccu1oMcINC7Hgl3DYuupf+eQG7+5QzrdBIQu51UXezk/3oPwhOllRBjSSae3BJ9wEslMDy2Uw/wNFLFIPIXVVrhthjnScCY2ww+oJV0G+3jWPG76mCi7amfQ+jGlN1hHSeyOJyWHHsuPHABRg5reqtXKZAiYiytkehDRsnYEv+HsDEJxPK5NWAreTeuAM6dvmrJLe0zYS9u7T3QxRCyoricOUycSsrnIO3OdKSsRmpivU7pUD8e/fSyai9Vf8iVjC4ABZ8BXOp5myE/PI8Sk8koGCVhwuuyZiPgOA1wXvh28KEGS0I3kEyav9W84hdHCai/A9VbIa6cJlem3XA/4Kf2PLEk+he2kThogj2oxJf5CsufBqBzssD0nJA0nf+P0fvLNQ3mHIT/QHEcZQ1N8ENfNkJC3nPci5ygzV9tAQofRiSNiwffPDJ/rASHtKytsgXhrJmfEw29BsAyNAFgCn9y2I5k9q3lCSA8uOHSXcHm7uvfcE0mH4TuFmzLphvVMNmN30jyISmdph1yNxfhtIzKbko5PZUryGskbrg6Uht/2HU98CsJi6thWgeQAXHbX98SqTfBrGHdKXTqQKRVhpn9TTbTBzw+KzqiRoytqsAPnHv7iUy43OZmSQKn5wtON27H9TjB4TH/Bj3D62nMi3cPZ4bMC7HDPz+nVqG1xFwGDnx0bmD2CfM7CIf3TT5BpQXydPiGvAs96XHt9/4nBHdU6fpjH/YkjXu9jylX7HOSIcH19rfUp0aNF2Utcjyz5WLVQMGNr2a9AMOiOJxBvfNyHxbvvZqfX/eBezmr7Alv1L1Fyv173gTeqY9SR/g33b4bV5oM3dKSf/YJwwjsOUn09WN/Tl/N8neJdfHqRjHCNb4l7eUtqwYmX+Gv/JBhjVvzkF8F+DNDjmeb7ZzeN3kG1pw43quAOp233mFn/dX93FiRxb3z655ofzmoZM11TPxg0A1SKF3pkOic69PfA6x2oEUK7g/6FhhtTQx2X+hBtlUEz4fKVPTsZfY/rPv1PwH1EqjTB/nh8mWJd/Oq7SaM41gj1pox9icPZi4vWnbqsT0F/BMIZB1U7H/5JLGOhxoNlj/dtoaSjx9eLodjqMDuPJcX3BQIFXIQ/KGI6cJxzpnrqCIVpTPKMBq2vsNWdLSB4gb4sDdxdLEKrqCmw59DO7wNfmrbrl2X1t2vi0L2BmyYSiZJ7mvh4afj4pz9rpzP/reTZb4Boagu9T5epy72zwuwk42aXIZzFQHiMVIRx1yRaUG4iYhc6v9WRmAd2Rr41PF1OKlqLpE4+G0Kj2DLi6GLMyKFO+PeJ0vPp+E8SaA3q/fSGuPZO2YrrXqwhU2OoiXSBE5wBp8viFS3TyI20dLyq+Y+DtutVk1fgSGUVSUTj/vkfHMnmSxEdqcoKEo84D+skjjL2iCnj/c/C+f4YplWDIulyaDvKfN6uDCkVeaZrvJI5EUuOcBterB1Pio+hDWiEl8a//Vz6b4NxlIbEBBKWddO/cH08eNGqkQ39MKUt3oFFb7fXw0kcFDX68/bv0WcT7IDvH0GR8d2iw53TrDmMRZwfiFzYNo1ETc/cVC0++W6g4A9CmJ6aRHaIkCTtHMOpLcRmIbXFNw6xDGWpkwIM08c/Z8DMA8PiywQfWtT9ijLldkeGk4N79hNq3knFEvjab9Apjvqs+dlfc8l/gzw74K+d+kRzI0zir7rm2nvIRX2ttsWl3Sex3kdkrI6uX2o87+Acf3uU6feBt+bvjYMyy5EulO227FhkbPlr6O2hcUAP7PC4yv5p6+zboAUx2Y0shW6j7ZF1fzJmbHVtd/uSvB5DAbf/JHhWTDYIbxL8KLueksu/Y5r9MmjR+iHcLd1/J/INX7fuzitz/1fWrgfGxT3cJTLery1XD3F7HB/9DfUPa31Pn84uC94H3P5XwDb8i+4GSXI4rA+HxArcKPSN/zGi/M/C/wPN6x15EP3YIgAAAABJRU5ErkJggg==;" parent="WIyWlLk6GJQsqaUBKTNV-1" vertex="1">
          <mxGeometry x="193.74" y="100" width="100" height="100" as="geometry" />
        </mxCell>
        <mxCell id="TgRBGbH7u2lKpc8eLeI7-6" value="Daily Ingestion" style="text;html=1;strokeColor=none;fillColor=none;align=center;verticalAlign=middle;whiteSpace=wrap;rounded=0;" parent="WIyWlLk6GJQsqaUBKTNV-1" vertex="1">
          <mxGeometry x="10" y="250" width="60" height="30" as="geometry" />
        </mxCell>
        <mxCell id="TgRBGbH7u2lKpc8eLeI7-7" value="Quarterly Ingeston" style="text;html=1;strokeColor=none;fillColor=none;align=center;verticalAlign=middle;whiteSpace=wrap;rounded=0;" parent="WIyWlLk6GJQsqaUBKTNV-1" vertex="1">
          <mxGeometry x="133.74" y="240" width="60" height="30" as="geometry" />
        </mxCell>
        <mxCell id="TgRBGbH7u2lKpc8eLeI7-8" value="" style="shape=image;verticalLabelPosition=bottom;labelBackgroundColor=default;verticalAlign=top;aspect=fixed;imageAspect=0;image=data:image/jpeg,/9j/4AAQSkZJRgABAQAAAQABAAD/2wCEAAkGBxMSBhMQEhMVFhUXGBsVGRUVFhUZFhoYFhgWFhYVGxgaHSggGB4lHR0XITEjJSkrLi4vGiMzODMuNygtLjcBCgoKDg0OGxAQGy4mICYtLS0tLy0tLS0tLS0tLS4tLS0tLS0tLS0tLS0tLS0tLS0tLS0tLS0tLS0tLS0tLS0tLf/AABEIAJoBRwMBIgACEQEDEQH/xAAcAAEAAgMBAQEAAAAAAAAAAAAABQcDBAYIAQL/xABKEAABAwICBQYJCQUHBQEAAAABAAIDBBEFEgYHITFBE1FhcYGRFBUiMlNzkrGyFjZCUlRicpPRIzOCoaIkNGN0s8HCJjVDg6Ml/8QAGgEBAAMBAQEAAAAAAAAAAAAAAAECAwUEBv/EAC4RAAICAQIDBwQDAAMAAAAAAAABAhEDEjEhQVEEBRMzcZGxIjJSgWHB8DRC0f/aAAwDAQACEQMRAD8AvFEWOWQNjLnEADaSSAB1koDIiiHaSUgNvCIuxwPuT5TUf2iP2lp4WT8X7FPEh1XuS6KI+U1H9oj9pPlNR/aI/aTwsn4v2HiQ6r3JdFEfKaj+0R+0nymo/tEftJ4WT8X7DxIdV7kuiiPlNR/aI/aT5TUf2iP2k8LJ+L9h4kOq9yXRRHymo/tEftJ8pqP7RH7SeFk/F+w8SHVe5Loob5UUdr+Ex+0q10y1su5V0OH2DRsNQ4XJ9W07APvOBvzDeiwzbqiss0Erv24lxovLEukVY6bOauozXvflpB3Wds7FY+rjWTI6uZR1rsweQ2Oc2Dg47Gsf9YHcHb7773uLywSSspDtMZOti4ERFgegIiIAiIgCIiAIiIAiIgCIiAIiIAiIgCIiAIiIAiIgCIiAKtsamdXaQSRFxEEBy5QbZnAkEntDtvADZvurJVX4O62KVnrT8T17uxKtU+aXD+LdfB4O8H9MY8m+P80v/TebgtMG25FvbcnvJX3xNTehb3LYzr5nXq1T6v3OdUei9jB4mpvQt7k8TU3oW9yz50zpql1fuKj0MHiam9C3uTxNTehb3LPnTOmqXV+4qPQweJqb0Le5PE1N6Fvcs+dM6apdX7io9DB4mpvQt7k8TU3oW9y2M64/WFpEYaLwaM2kkHlEb2s3HqLto6r9Chyl1fuSoxfI5bTbF4ZKswUzGtjYbF7d73DfY/VH89/MuXRSejuCPrMSETCGtAL5JXeZHG3a6R3VzcT3qkpPds2jDlFGvSURdA6VxyxssC7ncdrY2ji42J6ACStUnbs2KV0hxGOWobHTtLaaK7YmnziDbNK/ne8i55hYcFEqqvdlpUuCPUGh+JGp0Ypqhxu58bcx++3yX/1AqaXI6qYy3QClB5pD2OmkcP5ELrlzpKpNHVg7imERFBYIiIAiIgCIiAIiIAiIgCIiAIiIAiIgCIiAIiIAiIgCqrDHWxWs9afe9WqqmonWxWr9afieuh2Haf6+Tnd47Q9X8ExnTOtbOmdeujnWbOdM61s6Z0oWbOdM61s6Z0oWbOdM61s6Z0oWfa6ubDRvlefJYC49nAdJ3Kl8SrnT175n+c836huDR0AWHYuw1i4rsZStP+I//g33nuXDLKb40bQ2s/cMTnzNY0FznENa0by5xsAOknYu80qa3C9GmYZGR4ROBLVPb9X6EIP1b37AT9NbGq3CGQ0s2MVI/ZQNcIgfpPAs5w5yPMH3nHiFwmL4k+pxOWplN3yOLj0czR0AWA6AsPulXJfJ6ktEL5v4NNOpF0+rbB/CtMIGEXZGeWf+GMgjvfkHart0rMYx1NJHoHR6g8HwKnp/RxMYetrQCe+6kkRc07AREQBERAEREAREQBERAEREAREQBERAEREAREQBERAEREAVQwOti9X613xPVvKnA62LVXrXfE9dHu//AL/r5OZ3l9sfV/BIZ0zrVzr9Zl76OZZsZ0zrVzpnShZtZ0zrVzr9ZkoWbGdfiSYNjLibAAknoG0rFmUHphW5MFc0b5CGdh2u/kCO1Q+CslcXRwuJVhmr3yne5xPUNzR2CwWTBcMfVYrFTR+fI4NB5hvc49AaCT1LSVraocNZT4VU4tPsaxrmsP3WbZXDnJIDR1EcV4ck9Mb/ANZ0MUNcq5GHW3iTKegp8Ip9jImtfIB0fu2nnO956S0qr1uYviL6nE5aiTz5HF56L7mjoAsB0BaaQjpjRGWeuVhXnqYwDkMBdVvFn1BBb0RNvl9o5ndIyqpdD8BdXaQRUwvlJzSOH0Y22znr3AdLgvTkELWQtYwBrWgNa0bgALADossO0T4aT0dkx8dZlREXlPcEREAREQBERAEREAREQBERAEREAREQBERAEREAREQBERAFTErrYvVetd8T1c6pOrdbGKn1rvicun3dvL9HL70+2Pq/gz50zrWzpnXSo5FmznTOtbOmdKFmznTOtbOmdKFmznXH6cVF6uOP6rS7tcbf8V0+dcVjFaKhhfxjeQOmJx8k9hH9SxzfbRtg4ysjqWmdLVMiYLve5rGjnc4hrR3lWrrWqm0WitLhMJ3tBf0sjIsT0vk8r+EqB1M4Ry2lnLOF207C/wDjf5DB3Zz/AAqD1gYx4XpbUTA3YHckzmyR+SCOgnM7+Jc6X1ZEuh04/Rib68DnkXSYRoZPLCJZnR0sB/8ANUuEYI+40+U/o3A86sfQfQvCnuc+N7qx0RAdI4OEIfvs0ABr+BsS61xzhTLLGJEME5fx/vclNVGi/geB8tI2084DnA72s3sZ0Hbc9JtwXdqLx7HYKOh5apkDG7hxc4/Va0bXHqUFDpZVyx56fCqhzDudNJDC4jnyOJK8b1Seo6C0wWk7FFxEmsJkE4ZX0tTSE7nuaJIj0B8ZOY9QU5ozpHDXwSyQZiyOQxZnC2azWOzAbwPKttsdihxkuNEqabqybREVSwRQWkOldJRD+0TNa61xGLukI58jdoHSdih6bTWonZnpcLqnsO50rooQekZibjpCsot8Srmk6O1RcdJpbVxNzT4VUho3mF8M7vZaQVv6P6ZUda/JDLaTjFICyTZvGV3nW42uml70NSujokRYpnEQuLRmcASG3tc22C/C/OqljKirrH9YlTRPaKnDXMDvNcKhjmm28ZmsIv0HasGDa0Jqur5Knw58j7XIE7QAN1y4sAA61fw5VZn4sLrmWYiwwOcYGlzcriAS297Eja2432Oy6zKhoEREAREQBERAEREAREQBERAFR2IutjFR6x3xOV4qisWdbGaj1j/icup3Z90vRHK71+yPr/R+c6Z1r50zrrUcWzYzpnWvnTOlCzYzpnWvnTOlCz7XVgjpHSEXtw57kCy42ujDKtwb5p2t6Wus4f7dy6PG2F+GuA4eV7O0rlHyXYBzCw6r3t3krx9p3SPZ2bay19DH+Aaqqqu3STFwYePoY+5+d3UqtpKp0ZuywdwdYFw/CT5p6Rt6VZOtR/g2i+HYYN7WCR9udjcgPa5zz2KsY4y6QNaC5xNg1oJJPMANpK5+JWm+rOjmdNRXJEjhGGz1+NshYXPkkO17yXWb9J7idtgNv8t5XpXR/CI6PCI6aIeSwWvxc7e556Sblc3q00OFBhfKSAeEygF535G7xED0bzbeegBdsvPmyanS2PXgxaFb3ZUOD1QxHW5IZvKjphJyLDtaDE9rA63OXEv7G8wVvLza+vlw3WBLIB5Uc8l2nZnje4m3RmYQQeBsVfWjukNPW0Amp33H0mnY9h+q5vA/yPC6Zo1TW1EYZp2uds2cYwuKqw58EzQ5jxYg7xzOB4EbweC5DVFh5p8NrKZxuYqt7L8+WOIB3aLHtXfLGyMAmwAubmw3ndc85WV8KNnFXZkVbaz9PzSXpKUjlyLvfv5IEbLDcXkbdu4beIXbaR4s2kwKaqdujYXAHi7cxva4gdq8+6F0Lq/TeETHPnkM0pP0g28jgehxAb2rXFBO5PZGWbI1UY7ssnVvoMGxNr60GSok/aNEnlZAdoc7NvkO+53bt91ZiIs5ScnbNYxUVSC4bWDoKyspzPAAyrZ5TXN8nlC3aGuI48zt4NuC7lFCbTtEyipKmVRq11hPkqW0Fc48oTljldscXeik+9wB47jt32uvPOtvCxTaaPczyRM1s4tss4kh9jz5ml38SuPQHHDW6LQzu/eAGOT8bNhPaLO/iWuWKpSXMwwzduEt0c/rvYDocw807CPZkHuJULqCYLVruP7Edn7Uqc12/MwevZ7nqG1Bfua3ri90qleS/wDdCsvPXoW0iIsD1BQON6WUdHVxxVMwje8XaC152XtmcWghovsubbjzFTy5PTPQanxGRj5HPjkYMudmW5Ze+UhwINiSRzXKtGr+rYrLVX07nUscC0EG4O0Ebl+1rUNK2KijiZfKxrWNubmzQGi547AtlVLBFzdPpIH6byYewNLY4OVe+5zCTOwZOa2VwPaukUtUQnYREUEhERAEREAVDY2f/wBmf1j/AInK+VQ2Of8AeZ/WP+Jy6vdX3S/Rye9/Lj6/0aN0uiLs0cMXS6IlAXS6IlAHcobRbDuU0tpoN4M7Qfwtdmd/SCplburqjvrJY47mMfN/8+T97l4e3qser1+D29g83T1/pmxphhc+Kay5YIPNiDInSG+RjGi7ienO54A4ntKs7RTQ6mw+EckzNJazpngGQ84B+i3oHbc7VsaL4KKahcSBysz3TzO4mSQlxF+Zt8o6r8SpxcOc21pWx9DDGk9T3YREWZoV1rO0BNb/AGqmt4Q0Wcw2AlaN23cHjcCdhGw7gqapKuposVLmOkgmYcpFrOHO1zTvHQRZeqlz+lGiVLXwWnZ5YFmyssJG9vEdBuFvjzVwex58uDU9UeDOU0K1pR1D2w1gbFKdgkGyJ54A3P7Mnp2HnGwKy15o0y0NqMOqQJPLicbMmaPJP3XD6DrcDv4E2KsLU1pU+ZjsPmcXGNueJx2nICGujJ45bi3QSNwTJjVaobFcWaWrRPcltdk5boXlH05mNPUMz/e0Lh9RrAdMJDzU7yPzIR/uVYGuCiMmg0hAuY3slt0B2Vx7A4nsVc6lKgM00yn6cL2DrBY/3NKtDymRk4Z4l+oiLzHrCIiApzX5H/a6J/EtlHcYiPeVv6hqgnCaqPg2Vr/bZY/AFF6+qkHE6SLi2N7yOh7mgfA5T2oyhLNHJpiP3kth0tjaG39ovHYvS/JR5I/8hmzru+ZrfXs+F6htQf8Ad638UXukUzru+ZrfXs+F6h9Qf91rPxRe6RVXkv1LPz16FsoiLA9JgqpC2me5rS9waSGAgFxAuGgnYCd21VvpfpvitLTNkNBHAxxyh8kgmN7EgERuAaeu42Kz1xGuT5hy/ji/1Gq+OtSTRnkvS2nyNnVljk1bo4Z6hwc/lXNuGhosA2wsOsrNpW/EjdlCyna0t/fSvOcE3vlZlsCNliSepQ+pL5mH1z/cxd7J5h6ik+EmTjuUFbPPWrWornaRyyUfIyTuicXmpLyC10kZc67SCXZsu88Srh0ckxU158OZRtiymxg5XPnu218ziLWzfyVZaiPnRL/lj/qRK9Fpnf10ZdmX0e4XC4xpfPLjLqHDImzTM/ezSE8hFwsbEZjvG/eNxsbSesXHDRaKSzMNpHWijPM5+zMOlrczv4VHaoMLbDoZHJby5y6Vx4nyi1m38IB6yVmklHUzSTblpXqcdpFpRjlBUt8IdEWu81zY2OiJG9twA4HoNiu71daW+McKc57QyaMhsjW3ym4u17bkkA2OwneCuc1m1wxB0WF0Q5eYSCSQssWRBoe3yn7mm7tu3Za28gLq9BdFGYdhHJB2eR5zSP3AutYADg0cO08VeenRxXEpBS8RpPh/Z0yIixNwqGxz/vU/rH/E5Xyqn0+0dfDiL6ljSYpDnJG3I47XZuYE7b9Nl0u7JxjkcXz2OZ3pjlLEmuT4nIIvl0uu7TPn9S6n1F8ul0pjUup9RfLpdKY1LqfV1GqqK+msz/q01vakH6LlrrsdUg/6jqj/AIMXxyLxd4eQ/wBfJ7u7mn2hfv4LXREXzp9KEREBBaG40azR+OpcGhzi9rg29gWSOZxJO4A9qnVRmrrSaaiMvKwTOonyOJmZG9zYng2c64FiLWuN+zZxBuDD8dpp4A+Goie3na9vcRe4PQVpkhpb6GWKeqK6mTGsMjqsLkppRdkjS09B4OHMQbEdIVF6oYHfL6MD6DZc1uYNLfiLVaGlmnMFPSuhpnieqfdkcUX7Qh53F2W9rb7bz3kamq7Qx1DROnnA8IlABG/k2b8l/rE2LrbNgHC6tF6YO+exWcdWSNctzt6umbLSvieLse0scDxa4WI7l50q6ObBtNWFwJETxIx3pISSDbpLczTzG69JKB0s0Ygr8N5GYWcNrJB5zHc45weI49YBUY8ml09i2XHrVrdbEtRVbJqNk0bg5j2hzXDcQ4XBWwqiwStrcCkNPVxPmoiSWzRAuEdztP3Qd5Y6225BO29h4ZpTRVDAYaqF1/o5w1/ax1nDtCrKDW2xaE734Mml+HuAaSTYDaSdyjcQ0hpII80tTCwdMjbnqF7nsVf6QaQVeLMNJhkLxTu8mSqkBYxzeLQSNjecbXHdYC94jFsmU0vXocRpJUSYtp44U4zZ3CKLmEbNnKHmb5z+1X5gWGMpcJipo/NjaG34k73OPSTcnrUJoRoXDh9IbeXM8eXKRY2+o0fRbfhx48LdWr5J39K2RnixtXKW7K+13fM1vr2fDIojUH/dKz8UfuesGuXSimmwqOkgmZI/lRI/IQ5rWta9ti4bLkuGzoKg9U2l0NDVTRVLsrJcpEliQ1zMws622xB38LLSMZeFVGUpLx075F9ouc+XOG5b+Gwe2L9yh8c1p0ENK4wycvJbyWMDspPC7yLAdVz0LBQk+R6XOKVtndrh9cnzFk/HH8YW7qzkkfoZDLK4ufI6WQkknz5pCLX3C1rDguZ1vaTUj9Gn0sc8b5eVaCxjg4tyOJdmt5tiLbeKtCL110ZWcrxt/wAElqT+Zn/uf7mrvJP3Z6iqm1Q6WUcGj76eoqI4ntlc8co4NBa4N2hx2bwditi4dFsNwRsPDaN6jKmpMYX9CKO1DfOWX/Ln/UiV6rzrq5xtmGaUP8JDmtyPgeQCSxzXNNyBtO1pGznVmnSubEXGDDGOazdJWysIZGOPJtO17+g2tx2bVrmg3O+Rl2eaUK58eHM1NecZOikRG4VDSe2OUA9/vX41f6Pw1mh0D5pqiRlnMMHLOZC3I5zcuSPLmFgD5RO9dZj+jwqtFn0LnucSxrRK/a7OyxZI4gC5zAE233Kp/RXSipwXEZKSphcYybujvZzXbuUjJ2OBAHQbDaFELlCo7oTqOTVLZqi8sMwyGnpuTgiZEz6rGhovzm289JWw+Voka0uALjZoJAJIBJAHHYCexVxU65aMQXjgqHO4BwjY3tcHm3YCtvQaCqrcT8a1zcgaCylhsQGNfsfKAdtyPJzHaRfhlWbxySuRqssW6jxLBREVDQIiIDTdhsJ2mGP2G/oniuH0MX5bP0W4inVLqRSNPxXD6GL8tn6J4rh9DF+Wz9FuIp1S6ikafiuH0MX5bP0TxXD6GL8tn6LcRNUuopGn4rh9DF+Wz9FER0zItNGZGtaJKZ+xrQATFLHzesXRqExmMtxWjnAvlkdC8jgyZh2/mMhTU3uyGkTaIiqWCIiAwU8DI4QxjWsaNzWgAC5ubAbN9yo3ENFqKd+aWkge76xjZm9q11Mol1sKIzDMDpqYHweniiJ3ljGgnrIFypNEQUEREAXB6e6voaykdJAxkdS3aC0BrZPuPtsueDt46l3iKYycXaIlFSVM8o00klJiodkDZYn7WSNBGZps5rmnfxHu516Q0Q0iir8GbNF5JHkvjvtjcN7eriDxHcoLWJoC2vZy8OVlS0WudjZANzXW3EcHdh2WtUeGV1bg+O5ix0b9z45AQyRvNfc4czm3se0L0usy4bnkjeCVP7Wel0XHYBrGoamnBdM2B/GOdwZY9Dz5Lh1G/QFO0OPUs1ZyMNRDJIGlxZHIx5DQQCSGk22kd68zi1uepSUtmZfE9P8AZ4fy2fonien+zw/ls/Rb6KC1Gh4np/s8P5bP0TxPT/Z4fy2fot9EIoxRRNbGGtAa0bgAAB1Abl88HZfzG+yFmRCTD4Mz6jfZCzDciICIrdHKOaq5WWlge/i98bC423XJG3tUlFG1sYa0BoGwAAADqA3LKiALTxDDYZ4cs8UcreaRjXD+obFuIgIii0aooZM0VLAx31mxMDu+11LoiWKoIiIAiIgCIiAIiIAiIgCIiAIiIAiIgCIiAIiIAiIgCIiALBU0rJIskjGvafovaHDuKzogIB2hmHF1/AqfsiYB3AWUnh+GwwRZYIY4m80bGsHc0BbiKW2yKQREUEhERAEREAREQBERAEREAREQBERAf//Z;" parent="WIyWlLk6GJQsqaUBKTNV-1" vertex="1">
          <mxGeometry x="283.83" y="410" width="106.17" height="50" as="geometry" />
        </mxCell>
        <mxCell id="TgRBGbH7u2lKpc8eLeI7-52" style="edgeStyle=orthogonalEdgeStyle;rounded=0;orthogonalLoop=1;jettySize=auto;html=1;entryX=0.75;entryY=1;entryDx=0;entryDy=0;" parent="WIyWlLk6GJQsqaUBKTNV-1" source="TgRBGbH7u2lKpc8eLeI7-9" target="TgRBGbH7u2lKpc8eLeI7-42" edge="1">
          <mxGeometry relative="1" as="geometry">
            <mxPoint x="740" y="340" as="targetPoint" />
            <Array as="points">
              <mxPoint x="660" y="340" />
            </Array>
          </mxGeometry>
        </mxCell>
        <mxCell id="TgRBGbH7u2lKpc8eLeI7-9" value="" style="rounded=0;whiteSpace=wrap;html=1;" parent="WIyWlLk6GJQsqaUBKTNV-1" vertex="1">
          <mxGeometry x="20" y="470" width="690" height="200" as="geometry" />
        </mxCell>
        <mxCell id="TgRBGbH7u2lKpc8eLeI7-21" style="edgeStyle=orthogonalEdgeStyle;rounded=0;orthogonalLoop=1;jettySize=auto;html=1;entryX=0;entryY=0.5;entryDx=0;entryDy=0;" parent="WIyWlLk6GJQsqaUBKTNV-1" source="TgRBGbH7u2lKpc8eLeI7-10" target="TgRBGbH7u2lKpc8eLeI7-18" edge="1">
          <mxGeometry relative="1" as="geometry">
            <Array as="points">
              <mxPoint x="210" y="315" />
              <mxPoint x="210" y="630" />
            </Array>
          </mxGeometry>
        </mxCell>
        <mxCell id="TgRBGbH7u2lKpc8eLeI7-40" style="edgeStyle=orthogonalEdgeStyle;rounded=0;orthogonalLoop=1;jettySize=auto;html=1;entryX=0;entryY=0.5;entryDx=0;entryDy=0;" parent="WIyWlLk6GJQsqaUBKTNV-1" source="TgRBGbH7u2lKpc8eLeI7-10" target="TgRBGbH7u2lKpc8eLeI7-17" edge="1">
          <mxGeometry relative="1" as="geometry" />
        </mxCell>
        <mxCell id="TgRBGbH7u2lKpc8eLeI7-10" value="" style="shape=image;verticalLabelPosition=bottom;labelBackgroundColor=default;verticalAlign=top;aspect=fixed;imageAspect=0;image=data:image/jpeg,/9j/4AAQSkZJRgABAQAAAQABAAD/2wCEAAkGBxEOEA4QDw4RDw4PEQ4PDhAOFBARDg4RFxcXGBYTFhYZHioiGRsoHCEUIzMkJystMDAzGCE2OzYvOjcvMC0BCwsLDw4PHBERGy8hHiQtLS0vMi80Ly8tLy0tLS8vLy0vLzovMC8vMC8vLy8vLy8vLy0vLy8vLS8vLy8vLzEvL//AABEIAOsA1gMBIgACEQEDEQH/xAAcAAEAAgMBAQEAAAAAAAAAAAAAAQIEBQcGAwj/xABKEAACAQMAAwsFCwoGAwAAAAAAAQIDBBEFITEGEjJBUVJhcYGRoQcTFJPRFRYiQlNydJKxwdIXMzRUYoKisrPhIyQ1c9PwY2Tx/8QAGgEBAAMBAQEAAAAAAAAAAAAAAAECBAUDBv/EADYRAAIBAgIFCgUDBQAAAAAAAAABAgMRBCEFEjFhkRQyQVFxgaGxwfATFSLR4TNS8SNCYnKi/9oADAMBAAIRAxEAPwDuIAAAAAAAAB8rivCnFzqTjCEdblNpRXay1SainKTSSTbb2JLazk26PTk72q3lqjFvzVPiS5zXOfhnB60aTqPceVaqqa3nrNI7vKUHvaFKVZ86T83DsysvuR5+73bXk+DKnSXFvIJvvnk822XqW1SMd/KlUjDnShJQ72sG+NCnHov2mCVepLp4GbX0/dz4V1V/dnKC7o4MKpeVZcKrUl86c39rPg2VbPXVS2LwR5aze1viy0pN7XnrKqo1sk11Nohsq2AZMNJV4cGvVj82pUX2MzKG6e9p8G7q/vtVP50zUNlWQ4xe1IlSl1viz19h5Qrmm152FOtHj1eaqd61fwntdA7p7e9+DTlva2MulUwqnS48Ul1duDjLJjNxalFuMotOMotqUWtjTWxnjPDwlsyZ7QxE47cz9BA8fuF3U+mRdGu16TTWVLZ56C+N85asrt5cewOfOLi7M6EZKSugACpYAAAAAAAAAAAAAAAAAA0W7S4dOxrtbZKFPslJKXhk5Qzp3lCf+Sf+5S+05g2dHCczvOdi39fce+3A6Ep+bV1UipTlKSo77WoRi8OS/abT18i6z2slnU1lPU09h5fyfX8alqqOV5yi5qUeNxlJyjLq1tdh6ox123Ud/aNlCypq3tnL93mhYWtSnVpRUadbfZgtUadRYzjkTT2cWGeVbPb+U3SMZSo28WnKnvqtTHxW1iK68b59x4Zs30G3TVzBXSVRpBsq2GyjPU8g2VZLKsAMhsNlWwDI0bfytq1KvDhUpqaXOXxo9TWV2ne6VRTjGUXmMkpRfKmso/PLZ3bcy82Vk3t9Gt/6cTHi1kmbcI9qNoADEbAAAAAAAAAAAAAAAAAADzPlD/Qn/uUvvOXNnU93lCdS0cacJ1Jecpve04ynLGvXhHOXoa6/VLj1VX2HQwrXw+85+KTdTJdCMa1ualGanTnKE47JQeH1dK6Db1d2V9KO98/jicowpqT7cauzBr3oa6/VLj1VX2FXoa6/VLj1VX2Hs1B5ux4x+IsldGFObk25Nyk23Jybcm3tbb2so2Z70Jd/qlx6qr7Cr0Jd/qlx6qr+EtrLrK6kup8DXtkMzp6Hukm3aV0km23SqpJLa28GvbJTT2Bprag2Q2S2VbBAbKNhsq2CQ2d23L/oNl9Gt/5InB2zvG5b9Bsfo1v/AE4mTF81dprwu1m1ABhNoAAAAAAAAAANLuh0/TsoJy+HVkn5umnhvpb4okxi5OyIlJRV2beclFNyaSWttvCS6Waa53V2VN4dxGT/APEpVF3xTXic30tpetdy31Wo2s5jTjqpQ6o/e9Zr2bYYRbZPgYpYx/2ridP9/Fnzqnq5Ee/mz51X1bOXtlWy/JKe8pyupuOo+/uy51T1bI9/dlzqnq5HLmyrY5JT3jldTcdT9/llzqvq2R7/AGy51X1bOVtlWxyWnvHKqm46t7/bLnVfVsj3/wBjzqvq5HKGyrHJae8nlVTcdQv93VlUo1YRlUzOnUhHNNpZcWkcuDZVs9KdKNPmnlUqyntDZRslsq2ehQhsq2S2VbBJDZ3ncu8WFk//AFbf+nE4Kd53M/6fZ/RaH9NGPGc1M1YTnMzvTYcr7h6bDlfca4Hyi0lX3cPydf4MTY+mQ5fBn2hNPY0+o1AjNp5Tw+gvDSdRP60mt2XqyHQXQzdAxrSvv1r2raZJ2KdSNSKlF3TM7TTswAC5BiaRvI29KpVnwacXJ8rfFFdLeF2nINJX07irOrVeZzeeiK4oroR7Tyk3rjCjRT4cpVZ9UdUU+1t/ungWdDCwtHW6X5HPxU7y1eheYZVslsq2ajKQ2VbJbIbAIbKtktlWyCQ2UYZVgBkMNkNgBso2GyrYJDZVsNlWwSGyrDBAB3ncz/p9n9Fof00cGO87nFvbCzT1NWtvno/w0Y8ZzOPka8JzmUIyCMnwnQdwEZGSCCS9GrvJKXJ48puU861sZocm2sKm+gujK9h1NFVvqlTfTmvX04HhXjkpGUADuGU5bu8ud/e1I8VKFOmu7fvxl4HnGzO05W85c3M+WtVx1KTS8MGvbOvTVoJbjkVHebe8NlWw2Q2XKBsq2GyrZBIbKNktlWAGVbDDYBDZVslso2AQ2VbJbKtgsGyrYbIIAACXe9SS2t8gBk6NsZXNalQhw6s401+yntl1JZfYd8rpU6W9jqioxhFdGzHceR8nu5OVqvSbiOLicd7TpvbRg9rfJN+C1cbR6W+r76WFsj4nE0ri1Cm7PrS7X09yOng6LWb9pGNkjIyQfInVGSMjJUqSSZ+ip65x6E19/wBxrjK0dLFRdOV4Z+40YKeriIdtuOXqVqq8GbkAH1Zzzhdae+lKXOlJ97yfNsvWjvZSjzXJdzwfNs7RxQ2VbDZVsgkNlGyWyjADZDJSbaSTbbSSSbbb2JLjZ0fcruGhTUat5FVKrw40XrhT+fz5dGxdO0pUqKCuz0p03N2R4XRuhbm610KE6kefqjD68sLxN7T8nl7JZcqEOic55/hizp8riEPg8mpJbF0Hxd++KPezk1dLQhK113Js3wwKtnd+Bzd+Te9+Vtfr1vwEfk2vPlbX69b8B0n06XNXiPTpc37Ty+dU+vwZfkK6vE5q/Jre/K2v1634Cr8ml78ra/XrfgOmenS5q8R6dLmrxHzqn1+DHIV1eJzP8md78ra+srf8ZH5M735W19ZW/wCM6Z6fLmrxHp8uZ9pHzqn1/wDLJ5CurxOdW3kwuG/8W5owXLSVSo+5qJ7DQG461sWqii6taOtVa2G4fNWyPXt6TZyv5cSS7zGq1pS4Um/+8hnraai1aN34L7+B6QwSTvb1Mq6vM5jDtfsMEZGTgV6860taf8dhuhFRVkRkgEHgXGSARkrckH2s3ipDrR8Mn0svzkPnIvRf9SH+y8xJZM9CAD7M5ZxPTtLzd1cw5tarjq3za8MGA2ei3f23m76o+KrClVXdvX4xZ5xs68HeKe45FRWk1vZDZVslsoyxUMqwyVFyajFZlJpRXK3qSAPe+TXQKeb2rHOHKFunsytUqnfmK6pdB7i7r/Fi+tkWVtG1oU6ceDRhGC6WljL63r7TDPl9K4uXNi9vl+fudzC0VGPZ5gAHBNgAIyASQQRkrcknJGSMkZK3JsSVyMkFWyQRkEFSwIBGSpIyRkZIyVuSMmRo5Zqw6M+CMXJsdCwzKcuT7X/8NGChr4imt6fDP0KVXqwbNwAD7E5h4Lyo2WY29dLgudGX73wo/ZLvOfNnbdOaOV3b1aD1b+PwZc2a1xl2NI4ncUpU5ThOLjOEnCcXtjJPDR0MLO8NXq8jn4qFp63WfNshhlWaTMGzL0Is3NquJ3FBP68TDbMzQb/zVp9It/54kS2PsLQ5yO4X3AfYa42N/wADuNcfE6S/W7l5s+ho80AEGA9RkjIyVyVJsTkjJBGStyxJGSCMlbkggEFWyUSRkjJGSpIyRkZIyUuWGSMkkFWySDe6Mpbyms7ZfCfb/bBp7Shv5xjxPW+g9KdzQ1C8pVn0ZL19PEyYqeSiAAfQGIHi9225R3Wbi3S9ISSnDUlWS2YfFJbOk9oC0JuDuis4Kasz8/VYShKUZxcJxeJRknGUXyNPYUbO46U0Jb3f5+hCo0sKeuNRLkU44aXaaGr5O7OTypV4LkjODX8UWzbHFQazyMUsLJbGcqbMvQT/AM1Z/SLf+eJ0j8nFp8rc/Xp/gL23k+tadSnUjUruVOpCrFSlT3rlGSks/A2ZRLxNNpoiOHmnfI9Pf8DuNbk2V/wGazJ8hpL9fuXqdujzQRkZIOcewyQRkgq2STkgmCy4rlNn7nw/a7/7HvQwlSum4Wy3lJ1Iw2mqINt7mw/a7/7Ee5sOWff/AGPd6LxG7j+COUQ9o1OSMm39zYcs+/8AsPcyHLPvXsK/KsRu4/gnlFP2jT5K5Nz7lw5Zd69g9yqfLPvXsIeicTu4jlNP2jS5IN17lU+WXevYPcmnyy717CPlGJ/x4/gtymmaUmEXJpJZb2JbWbn3Lp/tPra+5GTRt4wXwYpfeXpaGrN/XJJbs35W97CssVG2WZ8tHWnm46+E+EZgB9DSpRpQUIbEYZScndgAHoQAAAAAAAAAYukOA+tGrybTSH5t9hqsnz2lP1+5epsoc0ZIyMlTmnsSQQCtywTxs2o+vpNT5R958clckxqTjzW12Noaqe0+/pdT5R95HpdT5R958MhJt4Sbb2Ja2x8er+58WNSPUj7emVOe+8j0yp8o+8mVjVSzvO7DfcYzJnPEQ57mu1yRMYwey3gff0yp8o+83ts24QbeW4pt8rwebPSWv5un8yH2I6eh6k51J60m8ltbfTvZnxUUoqy6T7AA+gMQAAAAAAAAAAAAAAAAABi6R/NvsNQbu5p7+Eo8bWo0bPn9LRaqqXQ15P8AKNmHd42GSARk5NzQCMjJGSrZYZIyRkjJVsknJt9EUkoKfxp518mOI0xttEV1vfNvhJtrpT1+06GinBYla3U7duXpc8cSnqZG0NPpmgk4zWpvVLpfEbg0ml7lTahF53uW2tnUdnSrgsNJS6dnb/G3dcy4dP4isYB6S24FP5kPsR52lTc5Ritsv+5PTRjhJLYlhGDQkHec+jJd+fke2LlkkWAB9AYgAAAAAAAAAAAAAAAAAAa6+s99mUVr41ymxB416EK8NSezxT6173PItCTi7o82yuTe3FpCptWvlNfV0XNcF77wPna+jK9N/StZbtvDbwubYV4PbkYOSMl6tGUeFFrpecd58snNleLtJWe80LPYWyQCClyQAfWnbVJcGDfTs8WTCLqO0Vfcs/BBu2byKyuJtYcpNcjeopCLk0kst7EtpsaOiZfHkkuRa/E2VC2jBfBjjl42zq0dF4is71Xqrfm+H32bzPLEQjlHMx9H2Xm1mWub7kZ4B9FRowowUIKyXviYZScndgAHqVAAAAAAAAAAAAAAAAAAAAAAAAB8nSi9sYvsR9QQ1dWYTtsMf0KnzEPQ6a+Iu3WZAPP4FL9i4L7FteXWz5wpKOxJdSPoAeqyVioAAAAAAAAAAAAAAAAAAAAAAAAAAABDKMAvkrvz5sqwD6+cHnD4sgA+3nB5w+AAMjzg84fAsgD7qROTHRdAH2B80XQBIAAAAAAAAAAAP//Z;" parent="WIyWlLk6GJQsqaUBKTNV-1" vertex="1">
          <mxGeometry x="190" y="280" width="63.74" height="70" as="geometry" />
        </mxCell>
        <mxCell id="TgRBGbH7u2lKpc8eLeI7-12" value="" style="edgeStyle=orthogonalEdgeStyle;rounded=0;orthogonalLoop=1;jettySize=auto;html=1;" parent="WIyWlLk6GJQsqaUBKTNV-1" source="TgRBGbH7u2lKpc8eLeI7-0" target="TgRBGbH7u2lKpc8eLeI7-11" edge="1">
          <mxGeometry relative="1" as="geometry">
            <mxPoint x="230" y="305" as="targetPoint" />
            <mxPoint x="150" y="150" as="sourcePoint" />
            <Array as="points" />
          </mxGeometry>
        </mxCell>
        <mxCell id="TgRBGbH7u2lKpc8eLeI7-11" value="" style="shape=image;verticalLabelPosition=bottom;labelBackgroundColor=default;verticalAlign=top;aspect=fixed;imageAspect=0;image=data:image/jpeg,/9j/4AAQSkZJRgABAQAAAQABAAD/2wCEAAkGBxEOEA4QDw4RDw4PEQ4PDhAOFBARDg4RFxcXGBYTFhYZHioiGRsoHCEUIzMkJystMDAzGCE2OzYvOjcvMC0BCwsLDw4PHBERGy8hHiQtLS0vMi80Ly8tLy0tLS8vLy0vLzovMC8vMC8vLy8vLy8vLy0vLy8vLS8vLy8vLzEvL//AABEIAOsA1gMBIgACEQEDEQH/xAAcAAEAAgMBAQEAAAAAAAAAAAAAAQIEBQcGAwj/xABKEAACAQMAAwsFCwoGAwAAAAAAAQIDBBEFITEGEjJBUVJhcYGRoQcTFJPRFRYiQlNydJKxwdIXMzRUYoKisrPhIyQ1c9PwY2Tx/8QAGgEBAAMBAQEAAAAAAAAAAAAAAAECBAUDBv/EADYRAAIBAgIFCgUDBQAAAAAAAAABAgMRBCEFEjFhkRQyQVFxgaGxwfATFSLR4TNS8SNCYnKi/9oADAMBAAIRAxEAPwDuIAAAAAAAAB8rivCnFzqTjCEdblNpRXay1SainKTSSTbb2JLazk26PTk72q3lqjFvzVPiS5zXOfhnB60aTqPceVaqqa3nrNI7vKUHvaFKVZ86T83DsysvuR5+73bXk+DKnSXFvIJvvnk822XqW1SMd/KlUjDnShJQ72sG+NCnHov2mCVepLp4GbX0/dz4V1V/dnKC7o4MKpeVZcKrUl86c39rPg2VbPXVS2LwR5aze1viy0pN7XnrKqo1sk11Nohsq2AZMNJV4cGvVj82pUX2MzKG6e9p8G7q/vtVP50zUNlWQ4xe1IlSl1viz19h5Qrmm152FOtHj1eaqd61fwntdA7p7e9+DTlva2MulUwqnS48Ul1duDjLJjNxalFuMotOMotqUWtjTWxnjPDwlsyZ7QxE47cz9BA8fuF3U+mRdGu16TTWVLZ56C+N85asrt5cewOfOLi7M6EZKSugACpYAAAAAAAAAAAAAAAAAA0W7S4dOxrtbZKFPslJKXhk5Qzp3lCf+Sf+5S+05g2dHCczvOdi39fce+3A6Ep+bV1UipTlKSo77WoRi8OS/abT18i6z2slnU1lPU09h5fyfX8alqqOV5yi5qUeNxlJyjLq1tdh6ox123Ud/aNlCypq3tnL93mhYWtSnVpRUadbfZgtUadRYzjkTT2cWGeVbPb+U3SMZSo28WnKnvqtTHxW1iK68b59x4Zs30G3TVzBXSVRpBsq2GyjPU8g2VZLKsAMhsNlWwDI0bfytq1KvDhUpqaXOXxo9TWV2ne6VRTjGUXmMkpRfKmso/PLZ3bcy82Vk3t9Gt/6cTHi1kmbcI9qNoADEbAAAAAAAAAAAAAAAAAADzPlD/Qn/uUvvOXNnU93lCdS0cacJ1Jecpve04ynLGvXhHOXoa6/VLj1VX2HQwrXw+85+KTdTJdCMa1ualGanTnKE47JQeH1dK6Db1d2V9KO98/jicowpqT7cauzBr3oa6/VLj1VX2FXoa6/VLj1VX2Hs1B5ux4x+IsldGFObk25Nyk23Jybcm3tbb2so2Z70Jd/qlx6qr7Cr0Jd/qlx6qr+EtrLrK6kup8DXtkMzp6Hukm3aV0km23SqpJLa28GvbJTT2Bprag2Q2S2VbBAbKNhsq2CQ2d23L/oNl9Gt/5InB2zvG5b9Bsfo1v/AE4mTF81dprwu1m1ABhNoAAAAAAAAAANLuh0/TsoJy+HVkn5umnhvpb4okxi5OyIlJRV2beclFNyaSWttvCS6Waa53V2VN4dxGT/APEpVF3xTXic30tpetdy31Wo2s5jTjqpQ6o/e9Zr2bYYRbZPgYpYx/2ridP9/Fnzqnq5Ee/mz51X1bOXtlWy/JKe8pyupuOo+/uy51T1bI9/dlzqnq5HLmyrY5JT3jldTcdT9/llzqvq2R7/AGy51X1bOVtlWxyWnvHKqm46t7/bLnVfVsj3/wBjzqvq5HKGyrHJae8nlVTcdQv93VlUo1YRlUzOnUhHNNpZcWkcuDZVs9KdKNPmnlUqyntDZRslsq2ehQhsq2S2VbBJDZ3ncu8WFk//AFbf+nE4Kd53M/6fZ/RaH9NGPGc1M1YTnMzvTYcr7h6bDlfca4Hyi0lX3cPydf4MTY+mQ5fBn2hNPY0+o1AjNp5Tw+gvDSdRP60mt2XqyHQXQzdAxrSvv1r2raZJ2KdSNSKlF3TM7TTswAC5BiaRvI29KpVnwacXJ8rfFFdLeF2nINJX07irOrVeZzeeiK4oroR7Tyk3rjCjRT4cpVZ9UdUU+1t/ungWdDCwtHW6X5HPxU7y1eheYZVslsq2ajKQ2VbJbIbAIbKtktlWyCQ2UYZVgBkMNkNgBso2GyrYJDZVsNlWwSGyrDBAB3ncz/p9n9Fof00cGO87nFvbCzT1NWtvno/w0Y8ZzOPka8JzmUIyCMnwnQdwEZGSCCS9GrvJKXJ48puU861sZocm2sKm+gujK9h1NFVvqlTfTmvX04HhXjkpGUADuGU5bu8ud/e1I8VKFOmu7fvxl4HnGzO05W85c3M+WtVx1KTS8MGvbOvTVoJbjkVHebe8NlWw2Q2XKBsq2GyrZBIbKNktlWAGVbDDYBDZVslso2AQ2VbJbKtgsGyrYbIIAACXe9SS2t8gBk6NsZXNalQhw6s401+yntl1JZfYd8rpU6W9jqioxhFdGzHceR8nu5OVqvSbiOLicd7TpvbRg9rfJN+C1cbR6W+r76WFsj4nE0ri1Cm7PrS7X09yOng6LWb9pGNkjIyQfInVGSMjJUqSSZ+ip65x6E19/wBxrjK0dLFRdOV4Z+40YKeriIdtuOXqVqq8GbkAH1Zzzhdae+lKXOlJ97yfNsvWjvZSjzXJdzwfNs7RxQ2VbDZVsgkNlGyWyjADZDJSbaSTbbSSSbbb2JLjZ0fcruGhTUat5FVKrw40XrhT+fz5dGxdO0pUqKCuz0p03N2R4XRuhbm610KE6kefqjD68sLxN7T8nl7JZcqEOic55/hizp8riEPg8mpJbF0Hxd++KPezk1dLQhK113Js3wwKtnd+Bzd+Te9+Vtfr1vwEfk2vPlbX69b8B0n06XNXiPTpc37Ty+dU+vwZfkK6vE5q/Jre/K2v1634Cr8ml78ra/XrfgOmenS5q8R6dLmrxHzqn1+DHIV1eJzP8md78ra+srf8ZH5M735W19ZW/wCM6Z6fLmrxHp8uZ9pHzqn1/wDLJ5CurxOdW3kwuG/8W5owXLSVSo+5qJ7DQG461sWqii6taOtVa2G4fNWyPXt6TZyv5cSS7zGq1pS4Um/+8hnraai1aN34L7+B6QwSTvb1Mq6vM5jDtfsMEZGTgV6860taf8dhuhFRVkRkgEHgXGSARkrckH2s3ipDrR8Mn0svzkPnIvRf9SH+y8xJZM9CAD7M5ZxPTtLzd1cw5tarjq3za8MGA2ei3f23m76o+KrClVXdvX4xZ5xs68HeKe45FRWk1vZDZVslsoyxUMqwyVFyajFZlJpRXK3qSAPe+TXQKeb2rHOHKFunsytUqnfmK6pdB7i7r/Fi+tkWVtG1oU6ceDRhGC6WljL63r7TDPl9K4uXNi9vl+fudzC0VGPZ5gAHBNgAIyASQQRkrcknJGSMkZK3JsSVyMkFWyQRkEFSwIBGSpIyRkZIyVuSMmRo5Zqw6M+CMXJsdCwzKcuT7X/8NGChr4imt6fDP0KVXqwbNwAD7E5h4Lyo2WY29dLgudGX73wo/ZLvOfNnbdOaOV3b1aD1b+PwZc2a1xl2NI4ncUpU5ThOLjOEnCcXtjJPDR0MLO8NXq8jn4qFp63WfNshhlWaTMGzL0Is3NquJ3FBP68TDbMzQb/zVp9It/54kS2PsLQ5yO4X3AfYa42N/wADuNcfE6S/W7l5s+ho80AEGA9RkjIyVyVJsTkjJBGStyxJGSCMlbkggEFWyUSRkjJGSpIyRkZIyUuWGSMkkFWySDe6Mpbyms7ZfCfb/bBp7Shv5xjxPW+g9KdzQ1C8pVn0ZL19PEyYqeSiAAfQGIHi9225R3Wbi3S9ISSnDUlWS2YfFJbOk9oC0JuDuis4Kasz8/VYShKUZxcJxeJRknGUXyNPYUbO46U0Jb3f5+hCo0sKeuNRLkU44aXaaGr5O7OTypV4LkjODX8UWzbHFQazyMUsLJbGcqbMvQT/AM1Z/SLf+eJ0j8nFp8rc/Xp/gL23k+tadSnUjUruVOpCrFSlT3rlGSks/A2ZRLxNNpoiOHmnfI9Pf8DuNbk2V/wGazJ8hpL9fuXqdujzQRkZIOcewyQRkgq2STkgmCy4rlNn7nw/a7/7HvQwlSum4Wy3lJ1Iw2mqINt7mw/a7/7Ee5sOWff/AGPd6LxG7j+COUQ9o1OSMm39zYcs+/8AsPcyHLPvXsK/KsRu4/gnlFP2jT5K5Nz7lw5Zd69g9yqfLPvXsIeicTu4jlNP2jS5IN17lU+WXevYPcmnyy717CPlGJ/x4/gtymmaUmEXJpJZb2JbWbn3Lp/tPra+5GTRt4wXwYpfeXpaGrN/XJJbs35W97CssVG2WZ8tHWnm46+E+EZgB9DSpRpQUIbEYZScndgAHoQAAAAAAAAAYukOA+tGrybTSH5t9hqsnz2lP1+5epsoc0ZIyMlTmnsSQQCtywTxs2o+vpNT5R958clckxqTjzW12Noaqe0+/pdT5R95HpdT5R958MhJt4Sbb2Ja2x8er+58WNSPUj7emVOe+8j0yp8o+8mVjVSzvO7DfcYzJnPEQ57mu1yRMYwey3gff0yp8o+83ts24QbeW4pt8rwebPSWv5un8yH2I6eh6k51J60m8ltbfTvZnxUUoqy6T7AA+gMQAAAAAAAAAAAAAAAAABi6R/NvsNQbu5p7+Eo8bWo0bPn9LRaqqXQ15P8AKNmHd42GSARk5NzQCMjJGSrZYZIyRkjJVsknJt9EUkoKfxp518mOI0xttEV1vfNvhJtrpT1+06GinBYla3U7duXpc8cSnqZG0NPpmgk4zWpvVLpfEbg0ml7lTahF53uW2tnUdnSrgsNJS6dnb/G3dcy4dP4isYB6S24FP5kPsR52lTc5Ritsv+5PTRjhJLYlhGDQkHec+jJd+fke2LlkkWAB9AYgAAAAAAAAAAAAAAAAAAa6+s99mUVr41ymxB416EK8NSezxT6173PItCTi7o82yuTe3FpCptWvlNfV0XNcF77wPna+jK9N/StZbtvDbwubYV4PbkYOSMl6tGUeFFrpecd58snNleLtJWe80LPYWyQCClyQAfWnbVJcGDfTs8WTCLqO0Vfcs/BBu2byKyuJtYcpNcjeopCLk0kst7EtpsaOiZfHkkuRa/E2VC2jBfBjjl42zq0dF4is71Xqrfm+H32bzPLEQjlHMx9H2Xm1mWub7kZ4B9FRowowUIKyXviYZScndgAHqVAAAAAAAAAAAAAAAAAAAAAAAAB8nSi9sYvsR9QQ1dWYTtsMf0KnzEPQ6a+Iu3WZAPP4FL9i4L7FteXWz5wpKOxJdSPoAeqyVioAAAAAAAAAAAAAAAAAAAAAAAAAAABDKMAvkrvz5sqwD6+cHnD4sgA+3nB5w+AAMjzg84fAsgD7qROTHRdAH2B80XQBIAAAAAAAAAAAP//Z;" parent="WIyWlLk6GJQsqaUBKTNV-1" vertex="1">
          <mxGeometry x="69.99999999999999" y="300" width="63.74" height="70" as="geometry" />
        </mxCell>
        <mxCell id="TgRBGbH7u2lKpc8eLeI7-30" style="edgeStyle=orthogonalEdgeStyle;rounded=0;orthogonalLoop=1;jettySize=auto;html=1;" parent="WIyWlLk6GJQsqaUBKTNV-1" source="TgRBGbH7u2lKpc8eLeI7-16" target="TgRBGbH7u2lKpc8eLeI7-27" edge="1">
          <mxGeometry relative="1" as="geometry">
            <Array as="points">
              <mxPoint x="400" y="510" />
              <mxPoint x="400" y="510" />
            </Array>
          </mxGeometry>
        </mxCell>
        <mxCell id="TgRBGbH7u2lKpc8eLeI7-35" style="edgeStyle=orthogonalEdgeStyle;rounded=0;orthogonalLoop=1;jettySize=auto;html=1;entryX=0;entryY=0;entryDx=0;entryDy=0;" parent="WIyWlLk6GJQsqaUBKTNV-1" source="TgRBGbH7u2lKpc8eLeI7-16" target="TgRBGbH7u2lKpc8eLeI7-29" edge="1">
          <mxGeometry relative="1" as="geometry">
            <Array as="points">
              <mxPoint x="440" y="510" />
              <mxPoint x="440" y="570" />
            </Array>
          </mxGeometry>
        </mxCell>
        <mxCell id="TgRBGbH7u2lKpc8eLeI7-16" value="load_fdic_institutions" style="rounded=0;whiteSpace=wrap;html=1;" parent="WIyWlLk6GJQsqaUBKTNV-1" vertex="1">
          <mxGeometry x="30" y="490" width="160" height="40" as="geometry" />
        </mxCell>
        <mxCell id="TgRBGbH7u2lKpc8eLeI7-32" style="edgeStyle=orthogonalEdgeStyle;rounded=0;orthogonalLoop=1;jettySize=auto;html=1;entryX=0;entryY=0.5;entryDx=0;entryDy=0;" parent="WIyWlLk6GJQsqaUBKTNV-1" source="TgRBGbH7u2lKpc8eLeI7-17" target="TgRBGbH7u2lKpc8eLeI7-27" edge="1">
          <mxGeometry relative="1" as="geometry" />
        </mxCell>
        <mxCell id="TgRBGbH7u2lKpc8eLeI7-33" style="edgeStyle=orthogonalEdgeStyle;rounded=0;orthogonalLoop=1;jettySize=auto;html=1;" parent="WIyWlLk6GJQsqaUBKTNV-1" source="TgRBGbH7u2lKpc8eLeI7-17" target="TgRBGbH7u2lKpc8eLeI7-29" edge="1">
          <mxGeometry relative="1" as="geometry" />
        </mxCell>
        <mxCell id="TgRBGbH7u2lKpc8eLeI7-17" value="load_ncua_profiles" style="rounded=0;whiteSpace=wrap;html=1;" parent="WIyWlLk6GJQsqaUBKTNV-1" vertex="1">
          <mxGeometry x="240" y="545" width="150" height="40" as="geometry" />
        </mxCell>
        <mxCell id="TgRBGbH7u2lKpc8eLeI7-36" style="edgeStyle=orthogonalEdgeStyle;rounded=0;orthogonalLoop=1;jettySize=auto;html=1;entryX=0;entryY=1;entryDx=0;entryDy=0;" parent="WIyWlLk6GJQsqaUBKTNV-1" source="TgRBGbH7u2lKpc8eLeI7-18" target="TgRBGbH7u2lKpc8eLeI7-29" edge="1">
          <mxGeometry relative="1" as="geometry" />
        </mxCell>
        <mxCell id="TgRBGbH7u2lKpc8eLeI7-37" style="edgeStyle=orthogonalEdgeStyle;rounded=0;orthogonalLoop=1;jettySize=auto;html=1;entryX=0;entryY=1;entryDx=0;entryDy=0;" parent="WIyWlLk6GJQsqaUBKTNV-1" source="TgRBGbH7u2lKpc8eLeI7-18" target="TgRBGbH7u2lKpc8eLeI7-27" edge="1">
          <mxGeometry relative="1" as="geometry">
            <Array as="points">
              <mxPoint x="430" y="630" />
              <mxPoint x="430" y="545" />
            </Array>
          </mxGeometry>
        </mxCell>
        <mxCell id="TgRBGbH7u2lKpc8eLeI7-18" value="load_ncua_shares" style="rounded=0;whiteSpace=wrap;html=1;" parent="WIyWlLk6GJQsqaUBKTNV-1" vertex="1">
          <mxGeometry x="240" y="610" width="150" height="40" as="geometry" />
        </mxCell>
        <mxCell id="TgRBGbH7u2lKpc8eLeI7-19" style="edgeStyle=orthogonalEdgeStyle;rounded=0;orthogonalLoop=1;jettySize=auto;html=1;entryX=0.449;entryY=0.043;entryDx=0;entryDy=0;entryPerimeter=0;" parent="WIyWlLk6GJQsqaUBKTNV-1" source="TgRBGbH7u2lKpc8eLeI7-11" target="TgRBGbH7u2lKpc8eLeI7-16" edge="1">
          <mxGeometry relative="1" as="geometry" />
        </mxCell>
        <mxCell id="TgRBGbH7u2lKpc8eLeI7-23" value="" style="endArrow=none;html=1;rounded=0;exitX=0.555;exitY=0.99;exitDx=0;exitDy=0;exitPerimeter=0;entryX=0.555;entryY=0.004;entryDx=0;entryDy=0;entryPerimeter=0;" parent="WIyWlLk6GJQsqaUBKTNV-1" source="TgRBGbH7u2lKpc8eLeI7-9" target="TgRBGbH7u2lKpc8eLeI7-9" edge="1">
          <mxGeometry width="50" height="50" relative="1" as="geometry">
            <mxPoint x="390" y="480" as="sourcePoint" />
            <mxPoint x="440" y="430" as="targetPoint" />
          </mxGeometry>
        </mxCell>
        <mxCell id="TgRBGbH7u2lKpc8eLeI7-24" value="Load Tables" style="text;html=1;strokeColor=none;fillColor=none;align=center;verticalAlign=middle;whiteSpace=wrap;rounded=0;fontStyle=4" parent="WIyWlLk6GJQsqaUBKTNV-1" vertex="1">
          <mxGeometry x="100" y="440" width="110" height="30" as="geometry" />
        </mxCell>
        <mxCell id="TgRBGbH7u2lKpc8eLeI7-25" value="Data Warehouse Tables" style="text;html=1;strokeColor=none;fillColor=none;align=center;verticalAlign=middle;whiteSpace=wrap;rounded=0;fontStyle=4" parent="WIyWlLk6GJQsqaUBKTNV-1" vertex="1">
          <mxGeometry x="450" y="440" width="160" height="30" as="geometry" />
        </mxCell>
        <mxCell id="TgRBGbH7u2lKpc8eLeI7-27" value="dw_financial_institution_profiles" style="rounded=0;whiteSpace=wrap;html=1;" parent="WIyWlLk6GJQsqaUBKTNV-1" vertex="1">
          <mxGeometry x="460" y="505" width="200" height="40" as="geometry" />
        </mxCell>
        <mxCell id="TgRBGbH7u2lKpc8eLeI7-29" value="dw_financial_institution_money" style="rounded=0;whiteSpace=wrap;html=1;" parent="WIyWlLk6GJQsqaUBKTNV-1" vertex="1">
          <mxGeometry x="460" y="570" width="200" height="40" as="geometry" />
        </mxCell>
        <mxCell id="TgRBGbH7u2lKpc8eLeI7-54" style="edgeStyle=orthogonalEdgeStyle;rounded=0;orthogonalLoop=1;jettySize=auto;html=1;" parent="WIyWlLk6GJQsqaUBKTNV-1" source="TgRBGbH7u2lKpc8eLeI7-42" target="bgztSwZFwCWHk4kptrza-0" edge="1">
          <mxGeometry relative="1" as="geometry">
            <Array as="points">
              <mxPoint x="630" y="150" />
            </Array>
            <mxPoint x="582.51" y="118.75" as="targetPoint" />
          </mxGeometry>
        </mxCell>
        <mxCell id="TgRBGbH7u2lKpc8eLeI7-42" value="" style="shape=image;verticalLabelPosition=bottom;labelBackgroundColor=default;verticalAlign=top;aspect=fixed;imageAspect=0;image=data:image/png,iVBORw0KGgoAAAANSUhEUgAAARsAAACyCAMAAABFl5uBAAAAgVBMVEX///8AAADR0dHm5ubFxcVnZ2f5+fng4OCsrKxPT09WVlb8/Pz4+PjZ2dnV1dX19fV2dnbu7u4QEBDLy8tfX1+0tLS+vr6goKBGRkaBgYE5OTmZmZliYmIvLy8mJiakpKRCQkKRkZEbGxt5eXmEhIQNDQ0YGBiMjIw8PDxtbW0rKytTXQhtAAAHLUlEQVR4nO2a65aiOhCFQVRQ2gsKKN7w2q3z/g94UlVJCNoz02cd10mPs78/DQhY2dYtSQcBAAAAAAAAAAAAAAAAAAAAAAAAAAAAAAAAAAAAAAAAAAAAAAAAAAAAAAAAAADA38eoXH8ckvHEtx3fj2IQCqt15tuW70VklCF2Xd/mfCc670qS2XSd1NWK1KmDLIL3MKOZ0mMtiaZfkjrb4+y4vZWpZ8P809+H4XtsT9dNdG1Lj2Z9CxZKBSvNfC+yXOTP6e92nVQFUaKPsx4JcqwjdTlmB9p4tc0v/SJXsSPekR7YVxbms/Skzj68meaZVJLLgU/KGUeR2/zRx53HxybdpE7m/Wda0n9T3Fv3zC/4t0RXySqUcuMlHQ1G7TtuYTi8f6o0zdBm/jRLYn6h8+UdOo+e9v5/TUSOstyG4VidXJy61B2esuaWtlytNrH3rC5I/LdqLnjWpq9UUVk4F21U87cWp445IS8kZKaq83Ef6sxCl+1zzO9rB27C1LM2Z1WpVVQMjTYSIdmHUoknVuxEpXIO55n4yAW+VxeLXKZfT5mbzrXUhb3iV5tM22K1oR4nTXZKjLjDgZOraBqpqGtyYjrkSBKbR3zT9Bm2THVHNbBX/GqjCnZOf11t5mq4A/afYkfGnTOVJK+NNkVLjQkr1apjbw/FK508lpv0ztkynrS01PCrjYoOnnBbbaLoRgbdxKIJNzu7yi1UKXnKtim1EUUYhVx8qqp1EH0MrvvhwsnPWbJZrpa9Qj+SVNWpE3R7+9Xg3ExS1HVymf7KdhOBZ20mKq2wyVabk/r1PigJHWQoIpW6bp+J2zlBlxelRZcGl+ik8W5nYeJ8iqs414ZyvH5r6MzVyP9qftnRXPKqjUokK2OYaKMTjMqxP/T459zzJPYZmnldJu2X8CBJG6eAFc3tBg5UKoDv9pLtDWLRIbb3BZ61UV++5AOrzUqvadEqxXLMh2mtLFzaHEIpM3dfkl4lDroy2t1tuuUDDhi+eKwONPMItxRpPe1Y4k62/n3oE3KfW2OeP23Ur7Tlg1adYtgbbpI2qLraKRWV7XPrLbnkZtFmrURMOV3TDPWNdJtSeGbkftQlsTa7eZqOtjoYif5ORxg/qt3SqzapMW4o3t3SZka/9ZoLTOEMwoyx4SaexNpoCRM9qjI0nsnRsu9rbfhlHSeo6OEtSdK/NBHst06tdF5QCbLq3/tNMNqreODAGlo9fq3NzIxkJhmHAtCsPC8lzkgbyewTKkqd5h0yW6hIQ7noV5taJ+Ms51/rThv+nKt31wSfJISfxpTt2yr2IRbyOBMukmV71i+4GxBtssaFRs2hX23S0LQTc0q+D9qMtTaZamJ0f3IL7xa70r3EUtf9oObUmpn6bSh/og3dvo+ZaGdD0/N8ihJDLYf1JXQa3Dlr0zFd39XKRh3IzK3hsR50S5uET7LjF7VZ3d234zTne42CTJ1Kns0oEGSrgRviwNFmabOmaWcsbu9ni/uC42yiStH7fGzpZJ9rMwrv4STlWxvy5vCykIAZqWSyK0wvGzjarKzfpJRDnOkVxw1pQtpcTRuUS8Yehk6YCp9pc37Qhvse39roVmylPYF6vqEa0X7d0iZTnayRg+uzXYHq8wuok+2ag0Dn1rl0dKYzKg+x+cJ7bejuzdRAs4pLFPjXRmlR81Q6l5hJKbCOizRuaVPYNkWpIcsSEodRbn9l1mYpmYgE2L3pYNFrQiq+8s9jirqgnTN5p4fqwL82O3L65AdZcVaWT9bqQhWZOqW1oTiq7SMj3rc6nopucuMJ1I51kr54X0bRnMXmJujGERtlGW+VDtJPtRmGraVQDrFl4F+bFSfZ7MDDTUr6cbnba2lD6dYpTWaFTrOTjNI157LlJykpk7nVVpYKyTUfteEAdFeA2NvG/rXp6c441ssGZim9cLRJQncirhgtHWlybT23/bYYb/UcI27K88zOw9vakPLXllHUMZ39a7Owc2He6TVL6ZQPA7Yuz05he704oGVTo87QlnPSZphpiSvrZpODXrg4ySjzRpu9aEOfL1qvp+I5y7xrE4W2c0mTDzEk45pK/b+y7p3CYfCwWp5GxfqwKB3L9ZwhSg7rsrUtM5kvnEtZFEWT5lCl4Ej+tF7Ol95GCp+bdxt39ZpJODmcaQCF/sm/sn3Zmk+9BtTyu/sEc94myiW/UkEPl1/bunxBbTi4l6Z5jSjRhD/0ukJfHR/inz7Z5hW1Cbh+b4o4iwvJpLaVOTst3295SW0CszlwX2KoX/36f22RNl9X8o8h7jXSNNsrxWPt/hWTTqcz+v1tfx5xvdmv9pxsDlyX0zHp9Zyd7tdA+v7BtLpxO7vHP9E6xEMn85yf+l9ZL0C5kYXMbfWSyeM/ko275TxGpgEAAAAAAAAAAAAAAAAAAAAAAAAAAAAAAAAAAAAAAAAAAAAAAAAAAAAAAAAAAPgf+QfHWlS1AuvniwAAAABJRU5ErkJggg==;" parent="WIyWlLk6GJQsqaUBKTNV-1" vertex="1">
          <mxGeometry x="622.3100000000001" y="300" width="63.59" height="40" as="geometry" />
        </mxCell>
        <mxCell id="TgRBGbH7u2lKpc8eLeI7-43" value="" style="shape=image;verticalLabelPosition=bottom;labelBackgroundColor=default;verticalAlign=top;aspect=fixed;imageAspect=0;image=data:image/jpeg,/9j/4AAQSkZJRgABAQAAAQABAAD/2wCEAAkGBxATEg8SEA8QDxUPFRUVFRUVFRUQFRUPFRUXFhUVFRYYHyggGBolHRUVITEhJSktLi4uGB8zODMsNygtLisBCgoKBQUFDgUFDisZExkrKysrKysrKysrKysrKysrKysrKysrKysrKysrKysrKysrKysrKysrKysrKysrKysrK//AABEIAOEA4QMBIgACEQEDEQH/xAAcAAEAAwEBAQEBAAAAAAAAAAAAAQIHBgUIBAP/xABOEAACAQMABAgICgUJCQAAAAAAAQIDBBEFBxIhBhMxQVFhk9IIFBcYIlRVcTI1QnJ0gZGUs9M0UqGxwxUkM0NzgpKytCMlU2KDosHh8P/EABQBAQAAAAAAAAAAAAAAAAAAAAD/xAAUEQEAAAAAAAAAAAAAAAAAAAAA/9oADAMBAAIRAxEAPwDcGyEicEgAAABGSQIwSAAAIYENkpBIkAAABVlgBCRIAAhsMjAAsgkAAAAhkJFgAAAAAAAAAKthsJAEiwAAAq2BYEIkAAAGSoJSAkAAAQ2QmBYAAACGwDYTISLAAAABGSQAAAEMkAVSLAAACrANkpBIkAAABUsyEgCRIPzX+kKFCO3XrUqEf1qk404/bJgfpIbPN0dwhsrhuNteW1xJc1OrCo/si8nogEWSAAAACGyEMFgAAAFWw2EgCRYAAAAIRIAAAjIEkYJAAAMAyEyCUgJAAHO8PeFENHWdW5lFTksQpQe7brS+Cn1Le31RZ80WtnpXTd1NrbuqnLKUmo06UG9yy/RhHoiuXDwma14SUZeJ2TWdlXDz0bXFy2f2KZ/XwcatF2N1GOONjcN1Fu2thwiqb+buml1qQGVcJtXelNGwVerTi4Ra/wBtRm58XLO7a3KUd+PSxjON+81jUhw/q3salndzdSvQjtwqP4VSgmk9t884trfytPpTb0DhdVoxsb2VxjilQq7eeRxcGsdbeUl1tHzlqLjN6ZtNjOIxrupjk4viZpZ6tpw+vAH1IAQ2BOQVSLAAAAIZIAqkWAAAFWwLAoALgFWwDZKQSJAAAA2VDJSAJEgACGw2QB4vDDg7T0haVrWo9njFmE8ZdOrHfCeOfD5VzrK5z5kvtHaW0Jc7WatrPfGNaHpUqsehSa2ZrdnZksrdlI+t0cJrv+Jb730P9RSAwHSnCrTGlHC3qVq11lpxo04JJyXO4U0trHS+Q2/U5q9lo6nO4ukvGbiKjsrD4mjnOxtLlk2k3jd6KS5MvjvBp/ptI/2dH/NM3psA2QkEiwAAACrZLZCQEokAAAVbANkpBIkAAAKyJSJAAAAAVyWAAAAQzhOGutWw0fN0fTuq8fhU6WMQfRUm9yfUstc6Rwz8IOXsuP3l/lAbmWRhXnBy9lx+8v8AKHnBy9lx+8v8oDdThNeHxLe++h/qKRwvnBy9lx+8v8o8ThprflpCzr2bsFQVbYe3xzqbOxUjP4Ows52ccvOB6vg0/wBNpH+zo/5pm9nyhq54dvRM7mStlc+MRhHHGcVs7Db/AFXnlO684OXsuP3l/lAbqDCvODl7Lj95f5Q84OXsuP3l/lAbqVbMM84OXsuP3l/lHU8EdcthdzhSrwnY1J4UduSnSlJ/JVRYw/nJLrA0pIsAAAIyBJCRIAAAAAAAAAZKglIAkSAAOR1qcI52Ojq9Wk9mrUcaNJ/q1Km7aXXGKlJdaR1rZk/hGy/3fa/S4/g1QMy1ZcApaVr1ZVatSnRo4dWa31J1JttQi5ZW08NtvON27ebPDU3oRJJ2tSXW69bL+yWDwfBu/Qrz6T/Cga6BwPkc0H6pPt63eHkc0H6pPt63eO+IbA4F6ndB+qT7et3iY6n9CeqTX/Xr947xFgOB8jug/VJ9vW7w8jmg/VJ9vW7x3wA4HyOaD9Un29bvEeR7Qfqk+3rd471sJAcG9Tmg/VJ9vW7xk2tvVnHRqhc2s51LepPYlGfpSpVGm4raS3weGk3vWEm3k+lzPte3xPc/Po/ixA/PqJ4T1LuxlSrSc6llJU9pvLlRks03J9KxKPuijSTCvBn+FpT3W376xubYBslIJEgAA2ABVkoCQAAIaCZIEJEgACGySGgKt8re7HK+owTXrw4sbulSs7Wo68qNZVJ1IpOluhOGzGWfSeZLeljrP2a/OHE4y/ky2m4rZUrqSeG1JZjRzzLDUn05S6U8z0hwNuKGjqGkazUI3VWMKVPHpSpyhOaqt8yexuXOnnoyGw+Dd+g3n0n+FA1upNRTlJqKim228JJb22+ZGSeDd+g3n0n+FA6PXXfzpaIu9h4dV06Ta/UnNKa+uOV9YGdcOddtxKpOlovZo04Nrj5RU6lTDxtQjLMYxfNlN4xychyVprW01TlGfjsqnO41IU5Qkt+7Gyml7mjofB/4MW11cXNxcQjV8TVPi4SxKPGVNv05R58KG7O7LzypY3jT2gba8ozoXNGFSE01vSzF80oP5Ml0oDl9WOsalpSEoTiqFzSWZ008xnDk4ynnfjLWU+TK5Tuz5N4D1Z2Wm7WEJbThdq2k1uUoTqcTLd7m39h9ZADyOFHCGhY29S5uJNQp7klvlOo90YQXO39i3t4SZ6zMH8JO/nxlhQy1BQnVa5nNtQTfuSf+Jgc3wh1yaVr1H4vUjZU8+jCnGM5Y5tqpJNt+7C6iNAa5NLW81x9SN5DPpU6sYxljn2akUmn78rqNS1G8FrajYUbvi4Tr3W1J1GlJwp7bjGnB/JWIpvrb5cI/rrt4L21fR9xdOnCFe1ipxqpJScFJKVOT+UsN4zyPk58h1/BThHb39tTubeTcZ7pRe6UKi+FCa5mv2pp85y+vb4nufn0fxYnAeDZpKaub22y3CpRVbHMp05xhuXM2qv8A2roO/wBe3xPc/Po/ixAynUhwxtNH1bqN3KdON1xSjUUdqEHB1Ph43pPbW9J9Z9IWtaFSMalOcakJpSjKLUoyi1uaa3NHyPwV4G3F/Rvqls1KdlGnLiselUhPbzsP9ZbHJz56eXsNRvDidtcQsa827e6ls08v+iuJfB2eiM3ua6Wn05D6OAABlWGSkASJAAAACEiQABGQ2QBYAAfJFWn49ptxqttXV/syy/6uVfZx9Udy9xrvhGQS0daKKSUbqCSW5JKjVwkZLwso1NHaarS2d9vdq4prkUqbqKtT3+5pP6zUNe2kqV1onR9ehNTp17mEovqdGtlPoaeU1zNNAf38G9/zG8+k/wAKB3nDrg/49Y3VqsKVSOabe5KtBqcMvoykn1NnCeDiv5lefSf4UDXAPkvgXwqutDXlXaot/wBXcUJ+g3svdv8AkyTzh7+V9JonCDX1CVGUbK0qwqzTW3Vcdmm2vhRjFvba5s4Xv5DSuFvAPR2kPSuaH+0Swq1N8XVS5k5LdJLokmctZajNEwntTneV0vkTqQjF+904Rl9jQGa6keC1W7v4Xc4t0bKfGSnJN7dzy04pvlkpNTfRhdKPpk/Jo+xo0KcKNvShRpwWIwglGK+pfvP1ICTKNf8AwUqXNtRu6EXOdltcZFLLdvPDckuV7Ljn3OT5jVwB806sta8tHUvFbijK4oJuVNwaVSm5PMkk90ottvG7Db3vO62szWzLSFLxW2oyt6EmnUc2nUqYeYxwt0Y5Sb3tvC5FlPVuEeqHRN3N1OLqWs5PMnbyjBSfXCUZRX1JFOD+qDRNrNVOLq3covMXcSjOKfzIxjF/3kwPD8H7grUt6Fa9rRcJXijGkmsNW8cvb380m1jqinznua9fie5+fR/Fid/FHA69vie5+fR/FiBxXgzfC0p7rb99Y4PWtYq10xeqj6C4yFaOzu2ZVIRqvHRiUmdz4NtaMP5WnOShGELeUpN4UYrj223zJIz7hRey0rparKgm/HK8KdLOfgLZpU5Nc3oxTfRvA+sdH3HGUqVT/iQhP/FFP/yfoP5W1JQjCEeSEVFe6KSR/UBgAACGwyAG17gNkAWIbDK4AksAAAAGb64tXz0jTjXtkvGreLSTwuOo8vF55pJtuLe7e1z5Xzxe3dzSpysqjq04U6vGOjNY2K6TjnDWYvEmuvcfZzRkHhH2VLxO1rcVDjfGIw4zZW3xfFVXsbXLs5SeOoC/g3foN59J/hQNdMi8G79BvPpP8KBroA/lc14whOcvg04uT5/Risv9xdshxTTTWU+VPflAYfW8IH0pbGjMxy9lyuMSceZtKm0n1ZfvZXzg5ey4/eX+UdzW1P6ElKUvFJR2m3iNarFLPQtrcuop5G9B+qz7et3gOJ84OXsuP3l/lDzg5ey4/eX+Udt5G9B+qz7et3h5HNCeq1O3rd4D2eAPC6Gk7VXMKbouM5U6kG9vZqRUZbpYW0tmcXnC5cHSpHn6B0Hb2dGNC1pKlTi28JuTcnyylJ5cm+lnogDP9e3xPc/Po/ixNAM/16r/AHPc/PofixA+abLSNxCnWt6NScYXTgqkI/1jg3sReN7WZPdz7uhG66ltW87Zq/vYbFaUcUKUl6VKMliU59E2nhLmTed7wvF8G+xpSq6QqTpQnOjGhxcpRUpQ2nV2thv4OcLOOg3pIAkSAAIbJK4AEpBIkAAAAPxXOkYwq06WzKUqm/ds+jHOMtN5a9yeD9oAAhsA2EQkWAGU+EbTb0dbtLKjdQb6k6VVL9rRqx4nDPg9C/s7i1m9njY+hLl2KsXtQl1pNLK51lAZz4NleLtL6CktqNeMmudRlTSi/rcJfYbCfJFhfaS0HezSXE1YejOE05U6tLO54WNqDxlSTXvW876HhA1sLOjabfPitJLPu2GBvGCTB/OCq+zIdu+4POCq+zIdu+4BvAMH84Kr7Mh277hfy+1fZtPt5flgbpkkwfzgansyHby7g84Kr7Mh277gG8AwfzgqvsyHbvuDzgqvsyHbvuAbwZ3r5rxjomqpSSdSrRjBfrSU9tpf3Yyf1HFvwgqvsyn277hwfCnhZpDTNxRhKG1vcaNvRT2VJ8+Hlylhb5PofIgND8GiEs6Unjc/F4p9a414+xo3E5HVfwR/k2yhRm1KtVk6tZreuMaSUU+iKSXW8vnOuAAhsgCwAAAAAAAPD0upeNWeFLEm1lfB2o5ktr0Wnu2mt6fRznuHP6cS8Zs21nZkscq3ykll+i1u62t/JvOgAhshDBYAAABVsNhIDztM6BtLuChd29K4iuTbjlxfTGXLH6jl3qg0F6k+3uO+d2AOE8j+gvUn29x3yPI/oL1J9vcd87wqwOE8kGgvUpdvcd8t5INB89nLt7jvndJEgcJ5H9BepPt7jvjyP6C9Sfb3HfO7AHB+R/QXqT7e475C1Q6D9Sl29x3zuyUgOE8j+gvUpdvcd86PQHBaxsk/FLWlQbWHJLM2uhzlmTX1nsgAQ2GyoEkpBIkAAQ2AbESEiwAAAeLpapTVxbZdPjN/FpyqKXpbpejHc1u+V0M9o8DTVf8AnNnD/my/muUUs9Kyvcns9SfvgAAAIkSAKpFgAABVsCwCAAAACpYjABIkAACGwmBLISJAAAAQ2QkTgkAAAAIySB4umbmca9nGLnGMpvaalFRkty2WuV8q+3HPu9o8nSdhUnXtqkUtmk/Se1JSxv8Ak8mM438uG17/AFgBVsNhICUSAAAKtgGyUgkSAAABkJkEpASAABDDZAEFkiUAABDYDJJVIsAAAAq2S2QkBGAXAAMACqLAAAABDKx/+/aABcAACGABESwAAAAVZKAAkAACr5wAJRIAAMACv/ssAAAAH//Z;" parent="WIyWlLk6GJQsqaUBKTNV-1" vertex="1">
          <mxGeometry x="564.11" y="290" width="60" height="60" as="geometry" />
        </mxCell>
        <mxCell id="TgRBGbH7u2lKpc8eLeI7-53" style="edgeStyle=orthogonalEdgeStyle;rounded=0;orthogonalLoop=1;jettySize=auto;html=1;entryX=0;entryY=0.5;entryDx=0;entryDy=0;exitX=0.5;exitY=1;exitDx=0;exitDy=0;" parent="WIyWlLk6GJQsqaUBKTNV-1" target="TgRBGbH7u2lKpc8eLeI7-43" edge="1" source="bgztSwZFwCWHk4kptrza-0">
          <mxGeometry relative="1" as="geometry">
            <mxPoint x="455.40999999999997" y="200" as="sourcePoint" />
            <Array as="points">
              <mxPoint x="520" y="230" />
              <mxPoint x="540" y="230" />
              <mxPoint x="540" y="320" />
            </Array>
          </mxGeometry>
        </mxCell>
        <mxCell id="TgRBGbH7u2lKpc8eLeI7-51" style="edgeStyle=orthogonalEdgeStyle;rounded=0;orthogonalLoop=1;jettySize=auto;html=1;entryX=0.891;entryY=0.013;entryDx=0;entryDy=0;entryPerimeter=0;" parent="WIyWlLk6GJQsqaUBKTNV-1" source="TgRBGbH7u2lKpc8eLeI7-43" target="TgRBGbH7u2lKpc8eLeI7-9" edge="1">
          <mxGeometry relative="1" as="geometry" />
        </mxCell>
        <mxCell id="TgRBGbH7u2lKpc8eLeI7-56" value="People ask questions" style="text;html=1;strokeColor=none;fillColor=none;align=center;verticalAlign=middle;whiteSpace=wrap;rounded=0;" parent="WIyWlLk6GJQsqaUBKTNV-1" vertex="1">
          <mxGeometry x="450" y="240" width="80" height="30" as="geometry" />
        </mxCell>
        <mxCell id="TgRBGbH7u2lKpc8eLeI7-57" value="LLM writes SQL Query" style="text;html=1;strokeColor=none;fillColor=none;align=center;verticalAlign=middle;whiteSpace=wrap;rounded=0;" parent="WIyWlLk6GJQsqaUBKTNV-1" vertex="1">
          <mxGeometry x="450" y="350" width="110" height="30" as="geometry" />
        </mxCell>
        <mxCell id="TgRBGbH7u2lKpc8eLeI7-58" value="Query Results" style="text;html=1;strokeColor=none;fillColor=none;align=center;verticalAlign=middle;whiteSpace=wrap;rounded=0;" parent="WIyWlLk6GJQsqaUBKTNV-1" vertex="1">
          <mxGeometry x="660" y="380" width="110" height="30" as="geometry" />
        </mxCell>
        <mxCell id="TgRBGbH7u2lKpc8eLeI7-59" value="Responds to person" style="text;html=1;strokeColor=none;fillColor=none;align=center;verticalAlign=middle;whiteSpace=wrap;rounded=0;" parent="WIyWlLk6GJQsqaUBKTNV-1" vertex="1">
          <mxGeometry x="640" y="190" width="80" height="40" as="geometry" />
        </mxCell>
        <mxCell id="bgztSwZFwCWHk4kptrza-0" value="" style="shape=image;verticalLabelPosition=bottom;labelBackgroundColor=default;verticalAlign=top;aspect=fixed;imageAspect=0;image=data:image/png,iVBORw0KGgoAAAANSUhEUgAAAMYAAACUCAMAAAD/A6aTAAAAolBMVEX///8AESEAAADX294nKDMACx3///38/Pz+/f8AEiAAEiMAAAwAABMAABcAABAAABkACyD09fXS1dfi5ecAECW4ur4AAAbLzc+Wmp6fo62IjJLq7O6ur7IaHyceIiwlJy9cYGMLDRkvNUQhJTV4gIYxNj85PUZfYmpQVFt0eHydpKcyMzPBxMgjJCRISUo8PkITFhtla28SGCsuLjNESlYSFyLcMijAAAAGs0lEQVR4nO2cC1PiOhTH09QkTfqmlNa23oIrWlwW5KLf/6vdkyLrykMIS9t4p7/ZYQQZNn/OIyfJiQj19PT09PT09PT09PT09PQgi1J4kP+o/Ol7wmDslL0/oTVS0zfD2hggNAdJMoiknG8pQyoonm7wBudmFkdh1yNSQ9ohjJ5fYfhuIAxgGLggZRxLq3yLKGHMYhSFSYaxR2oJ7wgRYBwUJgixLP21MFARpWtMDIMbu9i4KnIZ+boHCeQnFleeMzykghtD+2WVIP1lgL9kpW2IfQ21X3FBRo8F0loGtSyG2Mp2xQENtY760X1J67fqGh8M4oKtMDmmYismwCk4Hzv9gd0AMx57wuKECvCtIejQtzxhNMxGxikV0rfIS6FxzmXF2jUOh/cnOHcek64He5zB0jltiw32Ku96tMcAlwrOlWG8FLrG+PzOPVeEIeyF2fV4DxPO8Nm2MPgQP2toDpjNBjg4UIAcswZ3/QjJ+VInKGRbFWPI+goXIEOvtEstFP3rG2dMGltrCAOPmaVfbRVjBVuAXk5whPTyKQgNtBqdHRgfXqVZSQLeUfpKKgC80k0GQ5EXqMrwp7rJoCiRy1Y1gjfdChIKEa6SbmuG2NQtxtGzugwD61bmUpReImOu3T7iRTIS7WT8T5zqFqvNfoYM8UHX495jri4jsCPtVuSmrSzDL3Wb/hBlE+ViZFTpJwO92qoyNNytouqpSkCEa6YCxmOOFGtD9zHXzRjgHWw8UlrECpxpZwzGGCoUvQoWf1S3SRzI71WCXOAHPY80WYH5+fZwb3SrRLZE4/N3FYid6WkMIL47dUTz26XsxUC3+H6H0jB7I4KI4SkNBidlwbTLtr+JKocbZwQIGWWhtqdmkD2jtSNObeRyyFJVSPWVYVlo8OaesgY3ahXaymDyuNv85Xwd54LYr3m9Bd/1eL+AQXxM5I4V57u+BS/AS8K9ewh1nL0/AzqyuxE/src+JKNpGurdpSCxLMi78djz9o7H5XMxmszmoexR6HqcJ6gbLlD0fI/tPSEBxmPZwMOQ1nHxBywqKoxdAgEhAAgUYuO31TzXNT0dJUyye/yB85qa2lZRx6m/9nAQ32ZZlt7Gg7pp8tvZYtO/+kcIQEhQ/fPsFirtIIfP3s8nqXxWvwATnlX3U7L6yFO77dstFqxkUR4XuRQBHrTjQrILsX5HEcvjGW0dDL7yKF3d/bOSw6S7p8XWpqEtj1f/3K1uI211yI7PamITYpfjFIa56zWWzMPpuJTvIFWq3/7tO7eLiU84rJsC92U9i/fSaxjP1hM3IIbgxJ8snrsY43HqFkOKknv8sYtLfA/jHw9FEoXwaxZGSfHwA2PP/zjn9PG9bGWlbDeGOkKmVpSnUH18qmcDw4FZj5TTx8dpSeQEKHbKExunuaXNwsOC9WgyxjsdYcKQVQiYxXUcF4wg6pc+11gBHifazCYWDYupbEL6PMi6VoeSitcPvN5J+LQEgd8EeFqE3acs6Q+MwgLDEcOdJfhmjSTEkMseMLFxqN23COGUWS7r9k63Saic46LTHcTHEWS0ijYTZ3fItq5w6lyqoTYJd6Zhx1OI3EKYesbJRuivzCGIN827jQ/GokcHAnd4uQ65qHKX3XWBMrkxMFgoNoMdxl4MUFc1L2T86Mk5v9nzONxwnqKuLqdQms/Um6gOQ/Cso4NAqIZSD1QoN7XtM4Tp0U7bT7qs3qMpJleyhcx027sQbWqpv7jIO3r75xIprhdtP7lFGcyqLmg9+koHruqPblGG/M+y66oAz8JZ2ytbhsz1lQLjQ4b702x3W5TScPZXldRhnFnYataFLFVe2RgSUhbtelU0Vm47Ogd7FbWpAhVn38VSw4nb0yAPxhoxBpijausyhFy3FnZwjcJ2Dx7YhZyT2pDBaH7lme8PcJW3NpMnShdnlBBttRhTxmZNypixVv4qCUU5aWDO2ELcvI3dHnpBj6cKAj+3lKumTiNpagN3WroqpNypqsZw1MZMzpr1qfa8auw1K8MbtyAC5T8b9SnDCH62cQFt/os0GOEQ4+TXvHERFKUT3qg5Aj5Jm9+aZjNfoWn4AgT3Z82HeF41L6NqPjjMhcsbrEWgGuFuC39mIVk2L2PZfJU7X5KmnYosm09Vg+XJRtu/leEum78PmD81H+JPLcx/hc2bWYhvgA+3i+ZVyNuv2A+CgDQAfKyPcRs9MYwi82G5LsubBijL9fLBbKMnsW5as3KzIXJr0wbXPHvdd9elJRHS4rShzYvN52p8z6anp6enp6enp6enp6enS/4DsCts1lu9ey4AAAAASUVORK5CYII=;" vertex="1" parent="WIyWlLk6GJQsqaUBKTNV-1">
          <mxGeometry x="480" y="120" width="80.27" height="60" as="geometry" />
        </mxCell>
      </root>
    </mxGraphModel>
  </diagram>
</mxfile>
